<svg xmlns="http://www.w3.org/2000/svg" xmlns:xlink="http://www.w3.org/1999/xlink" width="1080" zoomAndPan="magnify" viewBox="0 0 810 809.999993" height="1080" preserveAspectRatio="xMidYMid meet" version="1.0"><defs><filter x="0%" y="0%" width="100%" height="100%" id="10fc432316"><feColorMatrix values="0 0 0 0 1 0 0 0 0 1 0 0 0 0 1 0 0 0 1 0" color-interpolation-filters="sRGB"/></filter><mask id="1a3daa3cba"><g filter="url(#10fc432316)"><rect x="-81" width="972" fill="#000000" y="-80.999999" height="971.999992" fill-opacity="0.7"/></g></mask><clipPath id="d9180c2500"><path d="M 1 0.171875 L 594 0.171875 L 594 523.746094 L 1 523.746094 Z M 1 0.171875 " clip-rule="nonzero"/></clipPath><clipPath id="b40b1f7e45"><path d="M 76 0.171875 L 518.109375 0.171875 C 538 0.171875 557.078125 8.074219 571.144531 22.140625 C 585.207031 36.203125 593.109375 55.28125 593.109375 75.171875 L 593.109375 448.746094 C 593.109375 468.636719 585.207031 487.714844 571.144531 501.777344 C 557.078125 515.84375 538 523.746094 518.109375 523.746094 L 76 523.746094 C 56.109375 523.746094 37.03125 515.84375 22.96875 501.777344 C 8.902344 487.714844 1 468.636719 1 448.746094 L 1 75.171875 C 1 55.28125 8.902344 36.203125 22.96875 22.140625 C 37.03125 8.074219 56.109375 0.171875 76 0.171875 Z M 76 0.171875 " clip-rule="nonzero"/></clipPath><clipPath id="82ca09137d"><rect x="0" width="595" y="0" height="524"/></clipPath><mask id="57cdbdeb27"><g filter="url(#10fc432316)"><rect x="-81" width="972" fill="#000000" y="-80.999999" height="971.999992" fill-opacity="0.2"/></g></mask><clipPath id="1ea1212abd"><path d="M 0.886719 0.359375 L 250.601562 0.359375 L 250.601562 281.160156 L 0.886719 281.160156 Z M 0.886719 0.359375 " clip-rule="nonzero"/></clipPath><clipPath id="12cfa1f13e"><rect x="0" width="251" y="0" height="282"/></clipPath><mask id="4f5d4643b5"><g filter="url(#10fc432316)"><rect x="-81" width="972" fill="#000000" y="-80.999999" height="971.999992" fill-opacity="0.9"/></g></mask><clipPath id="0892706dfe"><path d="M 1.023438 0.679688 L 280.558594 0.679688 L 280.558594 315.078125 L 1.023438 315.078125 Z M 1.023438 0.679688 " clip-rule="nonzero"/></clipPath><clipPath id="dab8e82174"><rect x="0" width="281" y="0" height="316"/></clipPath></defs><g mask="url(#1a3daa3cba)"><g transform="matrix(1, 0, 0, 1, 80, 131)"><g clip-path="url(#82ca09137d)"><g clip-path="url(#d9180c2500)"><g clip-path="url(#b40b1f7e45)"><path fill="#efefef" d="M 1 0.171875 L 594.109375 0.171875 L 594.109375 523.746094 L 1 523.746094 Z M 1 0.171875 " fill-opacity="1" fill-rule="nonzero"/></g></g></g></g></g><g mask="url(#57cdbdeb27)"><g transform="matrix(1, 0, 0, 1, 281, 285)"><g clip-path="url(#12cfa1f13e)"><g clip-path="url(#1ea1212abd)"><path fill="#5d5b5c" d="M 238.203125 119.417969 L 37.765625 3.695312 C 21.386719 -5.757812 0.921875 6.054688 0.921875 24.964844 L 0.921875 256.410156 C 0.921875 275.316406 21.390625 287.136719 37.765625 277.683594 L 238.203125 161.957031 C 254.574219 152.503906 254.574219 128.871094 238.203125 119.417969 Z M 238.203125 119.417969 " fill-opacity="1" fill-rule="nonzero"/></g></g></g></g><g mask="url(#4f5d4643b5)"><g transform="matrix(1, 0, 0, 1, 234, 235)"><g clip-path="url(#dab8e82174)"><g clip-path="url(#0892706dfe)"><path fill="#ffffff" d="M 266.710938 134.136719 L 42.308594 4.578125 C 23.976562 -6.003906 1.066406 7.21875 1.066406 28.390625 L 1.066406 287.507812 C 1.066406 308.675781 23.980469 321.902344 42.308594 311.320312 L 266.710938 181.761719 C 285.042969 171.179688 285.042969 144.71875 266.710938 134.136719 Z M 266.710938 134.136719 " fill-opacity="1" fill-rule="nonzero"/></g></g></g></g></svg>