<svg xmlns="http://www.w3.org/2000/svg" xmlns:xlink="http://www.w3.org/1999/xlink" width="1080" zoomAndPan="magnify" viewBox="0 0 810 809.999993" height="1080" preserveAspectRatio="xMidYMid meet" version="1.0"><defs><g/></defs><g fill="#d6d6d6" fill-opacity="1"><g transform="translate(177.08696, 587.948036)"><g><path d="M 77.96875 -342.070312 C 118.597656 -342.070312 135.070312 -355.796875 135.070312 -388.738281 C 135.070312 -421.683594 118.597656 -435.410156 77.96875 -435.410156 C 37.335938 -435.410156 20.863281 -421.683594 20.863281 -388.738281 C 20.863281 -355.796875 37.335938 -342.070312 77.96875 -342.070312 Z M 79.613281 0 C 109.8125 0 125.734375 -16.472656 125.1875 -46.671875 C 125.1875 -77.96875 124.636719 -108.714844 125.1875 -140.5625 C 125.734375 -174.054688 125.734375 -218.527344 125.734375 -256.964844 C 125.734375 -287.160156 109.265625 -303.632812 79.066406 -303.632812 L 78.515625 -303.632812 C 48.316406 -303.632812 31.847656 -287.160156 31.847656 -257.511719 C 32.394531 -222.921875 32.394531 -174.601562 32.945312 -93.339844 L 32.945312 -46.671875 C 32.945312 -16.472656 49.417969 0 79.613281 0 Z M 79.613281 0 "/></g></g></g><g fill="#d6d6d6" fill-opacity="1"><g transform="translate(333.021644, 587.948036)"><g><path d="M 305.28125 -47.21875 C 304.730469 -96.636719 303.632812 -142.757812 304.730469 -181.191406 C 306.929688 -271.789062 277.828125 -308.574219 220.175781 -308.574219 C 177.898438 -308.574219 145.503906 -290.457031 124.636719 -252.023438 L 122.992188 -252.023438 C 122.992188 -263.003906 122.992188 -271.238281 122.992188 -278.375 C 123.539062 -294.847656 107.066406 -304.183594 77.96875 -304.183594 C 48.316406 -304.183594 31.847656 -287.710938 31.847656 -257.511719 C 32.394531 -222.371094 32.945312 -187.78125 32.945312 -151.542969 C 32.945312 -115.851562 32.394531 -81.8125 31.847656 -46.671875 C 31.847656 -16.472656 48.316406 0 78.515625 0 L 81.8125 0 C 112.007812 0 128.480469 -16.472656 128.480469 -46.671875 C 127.933594 -81.8125 127.382812 -115.851562 127.933594 -151.542969 C 127.933594 -166.917969 128.480469 -182.839844 128.480469 -197.664062 C 137.265625 -217.429688 153.191406 -228.960938 174.054688 -229.511719 C 198.761719 -230.058594 211.390625 -217.980469 211.390625 -182.289062 C 211.390625 -144.40625 210.839844 -97.734375 210.292969 -47.21875 C 210.292969 -16.472656 226.765625 0 256.964844 0 L 258.609375 0 C 288.808594 0 305.28125 -16.472656 305.28125 -47.21875 Z M 305.28125 -47.21875 "/></g></g></g><g fill="#f4f4f4" fill-opacity="1"><g transform="translate(164.457363, 578.447706)"><g><path d="M 76.546875 -335.835938 C 116.4375 -335.835938 132.609375 -349.3125 132.609375 -381.65625 C 132.609375 -414 116.4375 -427.476562 76.546875 -427.476562 C 36.65625 -427.476562 20.484375 -414 20.484375 -381.65625 C 20.484375 -349.3125 36.65625 -335.835938 76.546875 -335.835938 Z M 78.164062 0 C 107.8125 0 123.445312 -16.171875 122.90625 -45.820312 C 122.90625 -76.546875 122.367188 -106.734375 122.90625 -138 C 123.445312 -170.882812 123.445312 -214.546875 123.445312 -252.28125 C 123.445312 -281.929688 107.273438 -298.101562 77.625 -298.101562 L 77.085938 -298.101562 C 47.4375 -298.101562 31.265625 -281.929688 31.265625 -252.820312 C 31.804688 -218.859375 31.804688 -171.421875 32.34375 -91.640625 L 32.34375 -45.820312 C 32.34375 -16.171875 48.515625 0 78.164062 0 Z M 78.164062 0 "/></g></g></g><g fill="#f4f4f4" fill-opacity="1"><g transform="translate(317.550165, 578.447706)"><g><path d="M 299.71875 -46.359375 C 299.179688 -94.875 298.101562 -140.15625 299.179688 -177.890625 C 301.335938 -266.835938 272.765625 -302.953125 216.164062 -302.953125 C 174.65625 -302.953125 142.851562 -285.164062 122.367188 -247.429688 L 120.75 -247.429688 C 120.75 -258.210938 120.75 -266.296875 120.75 -273.304688 C 121.289062 -289.476562 105.117188 -298.640625 76.546875 -298.640625 C 47.4375 -298.640625 31.265625 -282.46875 31.265625 -252.820312 C 31.804688 -218.320312 32.34375 -184.359375 32.34375 -148.78125 C 32.34375 -113.742188 31.804688 -80.320312 31.265625 -45.820312 C 31.265625 -16.171875 47.4375 0 77.085938 0 L 80.320312 0 C 109.96875 0 126.140625 -16.171875 126.140625 -45.820312 C 125.601562 -80.320312 125.0625 -113.742188 125.601562 -148.78125 C 125.601562 -163.875 126.140625 -179.507812 126.140625 -194.0625 C 134.765625 -213.46875 150.398438 -224.789062 170.882812 -225.328125 C 195.140625 -225.867188 207.539062 -214.007812 207.539062 -178.96875 C 207.539062 -141.773438 207 -95.953125 206.460938 -46.359375 C 206.460938 -16.171875 222.632812 0 252.28125 0 L 253.898438 0 C 283.546875 0 299.71875 -16.171875 299.71875 -46.359375 Z M 299.71875 -46.359375 "/></g></g></g></svg>