<svg xmlns="http://www.w3.org/2000/svg" xmlns:xlink="http://www.w3.org/1999/xlink" width="1080" zoomAndPan="magnify" viewBox="0 0 810 809.999993" height="1080" preserveAspectRatio="xMidYMid meet" version="1.0"><defs><clipPath id="826a2b040c"><path d="M 202.855469 374.652344 L 594 374.652344 L 594 642 L 202.855469 642 Z M 202.855469 374.652344 " clip-rule="nonzero"/></clipPath><clipPath id="2cabeba1c5"><path d="M 593.640625 389.652344 L 593.640625 632.511719 C 593.640625 635.6875 591.980469 638.628906 589.265625 640.269531 C 586.546875 641.910156 583.171875 642.011719 580.363281 640.535156 L 411.527344 551.8125 C 403.214844 547.445312 393.28125 547.445312 384.96875 551.8125 L 216.132812 640.535156 C 213.324219 642.011719 209.949219 641.910156 207.230469 640.269531 C 204.515625 638.628906 202.855469 635.6875 202.855469 632.511719 L 202.855469 389.652344 C 202.855469 381.371094 209.570312 374.652344 217.855469 374.652344 L 578.640625 374.652344 C 586.925781 374.652344 593.640625 381.371094 593.640625 389.652344 Z M 593.640625 389.652344 " clip-rule="nonzero"/></clipPath><clipPath id="42dcd5cb33"><path d="M 202.855469 269.597656 L 593.773438 269.597656 L 593.773438 334.710938 L 202.855469 334.710938 Z M 202.855469 269.597656 " clip-rule="nonzero"/></clipPath><clipPath id="3c0fcbef74"><path d="M 217.855469 269.597656 L 578.640625 269.597656 C 586.925781 269.597656 593.640625 276.3125 593.640625 284.597656 L 593.640625 319.710938 C 593.640625 327.992188 586.925781 334.710938 578.640625 334.710938 L 217.855469 334.710938 C 209.570312 334.710938 202.855469 327.992188 202.855469 319.710938 L 202.855469 284.597656 C 202.855469 276.3125 209.570312 269.597656 217.855469 269.597656 Z M 217.855469 269.597656 " clip-rule="nonzero"/></clipPath><clipPath id="a682bf52a3"><path d="M 202.855469 164.648438 L 593.773438 164.648438 L 593.773438 229.757812 L 202.855469 229.757812 Z M 202.855469 164.648438 " clip-rule="nonzero"/></clipPath><clipPath id="2df9caf26f"><path d="M 217.855469 164.648438 L 578.640625 164.648438 C 586.925781 164.648438 593.640625 171.363281 593.640625 179.648438 L 593.640625 214.757812 C 593.640625 223.042969 586.925781 229.757812 578.640625 229.757812 L 217.855469 229.757812 C 209.570312 229.757812 202.855469 223.042969 202.855469 214.757812 L 202.855469 179.648438 C 202.855469 171.363281 209.570312 164.648438 217.855469 164.648438 Z M 217.855469 164.648438 " clip-rule="nonzero"/></clipPath><clipPath id="90ebca60ec"><path d="M 190.855469 358.226562 L 574 358.226562 L 574 612 L 190.855469 612 Z M 190.855469 358.226562 " clip-rule="nonzero"/></clipPath><clipPath id="0d5210aad6"><path d="M 573.402344 373.226562 L 573.402344 602.207031 C 573.402344 605.382812 571.742188 608.324219 569.023438 609.964844 C 566.308594 611.605469 562.929688 611.707031 560.121094 610.230469 L 395.40625 523.671875 C 387.09375 519.304688 377.164062 519.304688 368.851562 523.671875 L 204.132812 610.230469 C 201.324219 611.707031 197.949219 611.605469 195.230469 609.964844 C 192.515625 608.324219 190.855469 605.382812 190.855469 602.207031 L 190.855469 373.226562 C 190.855469 369.246094 192.4375 365.433594 195.25 362.617188 C 198.0625 359.804688 201.878906 358.226562 205.855469 358.226562 L 558.402344 358.226562 C 562.378906 358.226562 566.195312 359.804688 569.007812 362.617188 C 571.820312 365.433594 573.402344 369.246094 573.402344 373.226562 Z M 573.402344 373.226562 " clip-rule="nonzero"/></clipPath><clipPath id="4f19b70f1f"><path d="M 190.855469 255.386719 L 573.53125 255.386719 L 573.53125 319.121094 L 190.855469 319.121094 Z M 190.855469 255.386719 " clip-rule="nonzero"/></clipPath><clipPath id="1fdefb8a5d"><path d="M 205.855469 255.386719 L 558.402344 255.386719 C 562.378906 255.386719 566.195312 256.964844 569.007812 259.777344 C 571.820312 262.589844 573.402344 266.40625 573.402344 270.386719 L 573.402344 304.121094 C 573.402344 308.101562 571.820312 311.917969 569.007812 314.730469 C 566.195312 317.542969 562.378906 319.121094 558.402344 319.121094 L 205.855469 319.121094 C 201.878906 319.121094 198.0625 317.542969 195.25 314.730469 C 192.4375 311.917969 190.855469 308.101562 190.855469 304.121094 L 190.855469 270.386719 C 190.855469 266.40625 192.4375 262.589844 195.25 259.777344 C 198.0625 256.964844 201.878906 255.386719 205.855469 255.386719 Z M 205.855469 255.386719 " clip-rule="nonzero"/></clipPath><clipPath id="3792815b8d"><path d="M 190.855469 152.648438 L 573.53125 152.648438 L 573.53125 216.386719 L 190.855469 216.386719 Z M 190.855469 152.648438 " clip-rule="nonzero"/></clipPath><clipPath id="86b2596ef4"><path d="M 205.855469 152.648438 L 558.402344 152.648438 C 562.378906 152.648438 566.195312 154.226562 569.007812 157.039062 C 571.820312 159.855469 573.402344 163.667969 573.402344 167.648438 L 573.402344 201.386719 C 573.402344 205.363281 571.820312 209.179688 569.007812 211.992188 C 566.195312 214.804688 562.378906 216.386719 558.402344 216.386719 L 205.855469 216.386719 C 201.878906 216.386719 198.0625 214.804688 195.25 211.992188 C 192.4375 209.179688 190.855469 205.363281 190.855469 201.386719 L 190.855469 167.648438 C 190.855469 163.667969 192.4375 159.855469 195.25 157.039062 C 198.0625 154.226562 201.878906 152.648438 205.855469 152.648438 Z M 205.855469 152.648438 " clip-rule="nonzero"/></clipPath></defs><g clip-path="url(#826a2b040c)"><g clip-path="url(#2cabeba1c5)"><path fill="#d6d6d6" d="M 202.855469 374.652344 L 594.027344 374.652344 L 594.027344 647.515625 L 202.855469 647.515625 Z M 202.855469 374.652344 " fill-opacity="1" fill-rule="nonzero"/></g></g><g clip-path="url(#42dcd5cb33)"><g clip-path="url(#3c0fcbef74)"><path fill="#d6d6d6" d="M 202.855469 269.597656 L 593.519531 269.597656 L 593.519531 334.710938 L 202.855469 334.710938 Z M 202.855469 269.597656 " fill-opacity="1" fill-rule="nonzero"/></g></g><g clip-path="url(#a682bf52a3)"><g clip-path="url(#2df9caf26f)"><path fill="#d6d6d6" d="M 202.855469 164.648438 L 593.519531 164.648438 L 593.519531 229.757812 L 202.855469 229.757812 Z M 202.855469 164.648438 " fill-opacity="1" fill-rule="nonzero"/></g></g><g clip-path="url(#90ebca60ec)"><g clip-path="url(#0d5210aad6)"><path fill="#efefef" d="M 190.855469 358.226562 L 573.257812 358.226562 L 573.257812 617.207031 L 190.855469 617.207031 Z M 190.855469 358.226562 " fill-opacity="1" fill-rule="nonzero"/></g></g><g clip-path="url(#4f19b70f1f)"><g clip-path="url(#1fdefb8a5d)"><path fill="#efefef" d="M 190.855469 255.386719 L 573.28125 255.386719 L 573.28125 319.121094 L 190.855469 319.121094 Z M 190.855469 255.386719 " fill-opacity="1" fill-rule="nonzero"/></g></g><g clip-path="url(#3792815b8d)"><g clip-path="url(#86b2596ef4)"><path fill="#efefef" d="M 190.855469 152.648438 L 573.28125 152.648438 L 573.28125 216.386719 L 190.855469 216.386719 Z M 190.855469 152.648438 " fill-opacity="1" fill-rule="nonzero"/></g></g></svg>