<svg xmlns="http://www.w3.org/2000/svg" xmlns:xlink="http://www.w3.org/1999/xlink" width="1080" zoomAndPan="magnify" viewBox="0 0 810 809.999993" height="1080" preserveAspectRatio="xMidYMid meet" version="1.0"><defs><g/></defs><g fill="#bbafa0" fill-opacity="1"><g transform="translate(162.956514, 592.784915)"><g><path d="M 76.546875 -335.835938 C 116.4375 -335.835938 132.609375 -349.3125 132.609375 -381.65625 C 132.609375 -414 116.4375 -427.476562 76.546875 -427.476562 C 36.65625 -427.476562 20.484375 -414 20.484375 -381.65625 C 20.484375 -349.3125 36.65625 -335.835938 76.546875 -335.835938 Z M 78.164062 0 C 107.8125 0 123.445312 -16.171875 122.90625 -45.820312 C 122.90625 -76.546875 122.367188 -106.734375 122.90625 -138 C 123.445312 -170.882812 123.445312 -214.546875 123.445312 -252.28125 C 123.445312 -281.929688 107.273438 -298.101562 77.625 -298.101562 L 77.085938 -298.101562 C 47.4375 -298.101562 31.265625 -281.929688 31.265625 -252.820312 C 31.804688 -218.859375 31.804688 -171.421875 32.34375 -91.640625 L 32.34375 -45.820312 C 32.34375 -16.171875 48.515625 0 78.164062 0 Z M 78.164062 0 "/></g></g></g><g fill="#bbafa0" fill-opacity="1"><g transform="translate(316.049315, 592.784915)"><g><path d="M 299.71875 -46.359375 C 299.179688 -94.875 298.101562 -140.15625 299.179688 -177.890625 C 301.335938 -266.835938 272.765625 -302.953125 216.164062 -302.953125 C 174.65625 -302.953125 142.851562 -285.164062 122.367188 -247.429688 L 120.75 -247.429688 C 120.75 -258.210938 120.75 -266.296875 120.75 -273.304688 C 121.289062 -289.476562 105.117188 -298.640625 76.546875 -298.640625 C 47.4375 -298.640625 31.265625 -282.46875 31.265625 -252.820312 C 31.804688 -218.320312 32.34375 -184.359375 32.34375 -148.78125 C 32.34375 -113.742188 31.804688 -80.320312 31.265625 -45.820312 C 31.265625 -16.171875 47.4375 0 77.085938 0 L 80.320312 0 C 109.96875 0 126.140625 -16.171875 126.140625 -45.820312 C 125.601562 -80.320312 125.0625 -113.742188 125.601562 -148.78125 C 125.601562 -163.875 126.140625 -179.507812 126.140625 -194.0625 C 134.765625 -213.46875 150.398438 -224.789062 170.882812 -225.328125 C 195.140625 -225.867188 207.539062 -214.007812 207.539062 -178.96875 C 207.539062 -141.773438 207 -95.953125 206.460938 -46.359375 C 206.460938 -16.171875 222.632812 0 252.28125 0 L 253.898438 0 C 283.546875 0 299.71875 -16.171875 299.71875 -46.359375 Z M 299.71875 -46.359375 "/></g></g></g></svg>