<svg xmlns="http://www.w3.org/2000/svg" xmlns:xlink="http://www.w3.org/1999/xlink" width="1080" zoomAndPan="magnify" viewBox="0 0 810 809.999993" height="1080" preserveAspectRatio="xMidYMid meet" version="1.0"><defs><clipPath id="93b528b6c8"><path d="M 213.726562 378.296875 L 597 378.296875 L 597 632 L 213.726562 632 Z M 213.726562 378.296875 " clip-rule="nonzero"/></clipPath><clipPath id="9224deb37e"><path d="M 596.273438 393.296875 L 596.273438 622.28125 C 596.273438 625.453125 594.613281 628.394531 591.894531 630.035156 C 589.179688 631.675781 585.804688 631.777344 582.996094 630.300781 L 418.277344 543.742188 C 409.964844 539.375 400.035156 539.375 391.722656 543.742188 L 227.003906 630.300781 C 224.195312 631.777344 220.820312 631.675781 218.105469 630.035156 C 215.386719 628.394531 213.726562 625.453125 213.726562 622.28125 L 213.726562 393.296875 C 213.726562 389.320312 215.308594 385.503906 218.121094 382.691406 C 220.933594 379.878906 224.75 378.296875 228.726562 378.296875 L 581.273438 378.296875 C 585.25 378.296875 589.066406 379.878906 591.878906 382.691406 C 594.691406 385.503906 596.273438 389.320312 596.273438 393.296875 Z M 596.273438 393.296875 " clip-rule="nonzero"/></clipPath><clipPath id="bf6e906b3a"><path d="M 213.726562 275.457031 L 596.402344 275.457031 L 596.402344 339.195312 L 213.726562 339.195312 Z M 213.726562 275.457031 " clip-rule="nonzero"/></clipPath><clipPath id="f13eea672a"><path d="M 228.726562 275.457031 L 581.273438 275.457031 C 585.25 275.457031 589.066406 277.039062 591.878906 279.851562 C 594.691406 282.664062 596.273438 286.480469 596.273438 290.457031 L 596.273438 324.195312 C 596.273438 328.171875 594.691406 331.988281 591.878906 334.800781 C 589.066406 337.613281 585.25 339.195312 581.273438 339.195312 L 228.726562 339.195312 C 224.75 339.195312 220.933594 337.613281 218.121094 334.800781 C 215.308594 331.988281 213.726562 328.171875 213.726562 324.195312 L 213.726562 290.457031 C 213.726562 286.480469 215.308594 282.664062 218.121094 279.851562 C 220.933594 277.039062 224.75 275.457031 228.726562 275.457031 Z M 228.726562 275.457031 " clip-rule="nonzero"/></clipPath><clipPath id="6534be52ce"><path d="M 213.726562 172.71875 L 596.402344 172.71875 L 596.402344 236.457031 L 213.726562 236.457031 Z M 213.726562 172.71875 " clip-rule="nonzero"/></clipPath><clipPath id="e3af72bec0"><path d="M 228.726562 172.71875 L 581.273438 172.71875 C 585.25 172.71875 589.066406 174.300781 591.878906 177.113281 C 594.691406 179.925781 596.273438 183.742188 596.273438 187.71875 L 596.273438 221.457031 C 596.273438 225.4375 594.691406 229.25 591.878906 232.0625 C 589.066406 234.878906 585.25 236.457031 581.273438 236.457031 L 228.726562 236.457031 C 224.75 236.457031 220.933594 234.878906 218.121094 232.0625 C 215.308594 229.25 213.726562 225.4375 213.726562 221.457031 L 213.726562 187.71875 C 213.726562 183.742188 215.308594 179.925781 218.121094 177.113281 C 220.933594 174.300781 224.75 172.71875 228.726562 172.71875 Z M 228.726562 172.71875 " clip-rule="nonzero"/></clipPath></defs><g clip-path="url(#93b528b6c8)"><g clip-path="url(#9224deb37e)"><path fill="#bbafa0" d="M 213.726562 378.296875 L 596.128906 378.296875 L 596.128906 637.28125 L 213.726562 637.28125 Z M 213.726562 378.296875 " fill-opacity="1" fill-rule="nonzero"/></g></g><g clip-path="url(#bf6e906b3a)"><g clip-path="url(#f13eea672a)"><path fill="#bbafa0" d="M 213.726562 275.457031 L 596.152344 275.457031 L 596.152344 339.195312 L 213.726562 339.195312 Z M 213.726562 275.457031 " fill-opacity="1" fill-rule="nonzero"/></g></g><g clip-path="url(#6534be52ce)"><g clip-path="url(#e3af72bec0)"><path fill="#bbafa0" d="M 213.726562 172.71875 L 596.152344 172.71875 L 596.152344 236.457031 L 213.726562 236.457031 Z M 213.726562 172.71875 " fill-opacity="1" fill-rule="nonzero"/></g></g></svg>