<svg xmlns="http://www.w3.org/2000/svg" xmlns:xlink="http://www.w3.org/1999/xlink" width="1080" zoomAndPan="magnify" viewBox="0 0 810 809.999993" height="1080" preserveAspectRatio="xMidYMid meet" version="1.0"><defs><filter x="0%" y="0%" width="100%" height="100%" id="67f5a73240"><feColorMatrix values="0 0 0 0 1 0 0 0 0 1 0 0 0 0 1 0 0 0 1 0" color-interpolation-filters="sRGB"/></filter><clipPath id="82013aed45"><path d="M 113.09375 203.796875 L 697 203.796875 L 697 606.203125 L 113.09375 606.203125 Z M 113.09375 203.796875 " clip-rule="nonzero"/></clipPath><clipPath id="9215c20844"><path d="M 188.09375 203.796875 L 621.90625 203.796875 C 641.796875 203.796875 660.875 211.699219 674.9375 225.765625 C 689.003906 239.828125 696.90625 258.90625 696.90625 278.796875 L 696.90625 531.203125 C 696.90625 551.09375 689.003906 570.171875 674.9375 584.234375 C 660.875 598.300781 641.796875 606.203125 621.90625 606.203125 L 188.09375 606.203125 C 168.203125 606.203125 149.125 598.300781 135.0625 584.234375 C 120.996094 570.171875 113.09375 551.09375 113.09375 531.203125 L 113.09375 278.796875 C 113.09375 258.90625 120.996094 239.828125 135.0625 225.765625 C 149.125 211.699219 168.203125 203.796875 188.09375 203.796875 Z M 188.09375 203.796875 " clip-rule="nonzero"/></clipPath><mask id="c056d30f18"><g filter="url(#67f5a73240)"><rect x="-81" width="972" fill="#000000" y="-80.999999" height="971.999992" fill-opacity="0.9"/></g></mask><clipPath id="30dc245982"><path d="M 0.332031 1 L 190.71875 1 L 190.71875 214.921875 L 0.332031 214.921875 Z M 0.332031 1 " clip-rule="nonzero"/></clipPath><clipPath id="f9cf6c80fe"><rect x="0" width="191" y="0" height="215"/></clipPath></defs><g clip-path="url(#82013aed45)"><g clip-path="url(#9215c20844)"><path fill="#bbafa0" d="M 113.09375 203.796875 L 696.269531 203.796875 L 696.269531 606.203125 L 113.09375 606.203125 Z M 113.09375 203.796875 " fill-opacity="1" fill-rule="nonzero"/></g></g><g mask="url(#c056d30f18)"><g transform="matrix(1, 0, 0, 1, 308, 297)"><g clip-path="url(#f9cf6c80fe)"><g clip-path="url(#30dc245982)"><path fill="#e8e6e2" d="M 181.160156 91.785156 L 28.429688 3.605469 C 15.949219 -3.597656 0.355469 5.402344 0.355469 19.816406 L 0.355469 196.171875 C 0.355469 210.578125 15.953125 219.582031 28.429688 212.378906 L 181.160156 124.199219 C 193.636719 116.996094 193.636719 98.988281 181.160156 91.785156 Z M 181.160156 91.785156 " fill-opacity="1" fill-rule="nonzero"/></g></g></g></g></svg>