<?xml version="1.0" encoding="UTF-8" standalone="no"?>
<!-- Created with Inkscape (http://www.inkscape.org/) -->

<svg
   width="361.23425mm"
   height="240.87103mm"
   viewBox="0 0 361.23425 240.87103"
   version="1.1"
   id="svg1"
   inkscape:export-filename="bitmap.svg"
   inkscape:export-xdpi="96"
   inkscape:export-ydpi="96"
   xmlns:inkscape="http://www.inkscape.org/namespaces/inkscape"
   xmlns:sodipodi="http://sodipodi.sourceforge.net/DTD/sodipodi-0.dtd"
   xmlns:xlink="http://www.w3.org/1999/xlink"
   xmlns="http://www.w3.org/2000/svg"
   xmlns:svg="http://www.w3.org/2000/svg">
  <sodipodi:namedview
     id="namedview1"
     pagecolor="#ffffff"
     bordercolor="#000000"
     borderopacity="0.25"
     inkscape:showpageshadow="2"
     inkscape:pageopacity="0.0"
     inkscape:pagecheckerboard="0"
     inkscape:deskcolor="#d1d1d1"
     inkscape:document-units="mm"
     inkscape:zoom="0.20383573"
     inkscape:cx="208.50123"
     inkscape:cy="421.90836"
     inkscape:window-width="1312"
     inkscape:window-height="449"
     inkscape:window-x="163"
     inkscape:window-y="66"
     inkscape:window-maximized="0"
     inkscape:current-layer="layer1" />
  <defs
     id="defs1">
    <linearGradient
       x1="0"
       y1="0"
       x2="1"
       y2="0"
       gradientUnits="userSpaceOnUse"
       gradientTransform="matrix(2649.15,0,0,-2649.15,3270.83,6558.09)"
       spreadMethod="pad"
       id="linearGradient20">
      <stop
         style="stop-color:#d4d1cd;stop-opacity:1;"
         offset="0"
         id="stop19" />
      <stop
         style="stop-color:#d4d1cd;stop-opacity:1;"
         offset="1"
         id="stop20" />
    </linearGradient>
    <linearGradient
       x1="0"
       y1="0"
       x2="1"
       y2="0"
       gradientUnits="userSpaceOnUse"
       gradientTransform="matrix(2649.15,0,0,-2649.15,3270.83,7363.97)"
       spreadMethod="pad"
       id="linearGradient18">
      <stop
         style="stop-color:#d4d1cd;stop-opacity:1;"
         offset="0"
         id="stop17" />
      <stop
         style="stop-color:#d4d1cd;stop-opacity:1;"
         offset="1"
         id="stop18" />
    </linearGradient>
    <linearGradient
       x1="0"
       y1="0"
       x2="1"
       y2="0"
       gradientUnits="userSpaceOnUse"
       gradientTransform="matrix(0,6827.8,6827.8,0,7544.76,1386.12)"
       spreadMethod="pad"
       id="linearGradient9">
      <stop
         style="stop-color:#27211c;stop-opacity:1;"
         offset="0"
         id="stop8" />
      <stop
         style="stop-color:#27211c;stop-opacity:1;"
         offset="1"
         id="stop9" />
    </linearGradient>
    <linearGradient
       x1="0"
       y1="0"
       x2="1"
       y2="0"
       gradientUnits="userSpaceOnUse"
       gradientTransform="matrix(0,-2650.09,-2650.09,0,6080.66,5564.4)"
       spreadMethod="pad"
       id="linearGradient12">
      <stop
         style="stop-color:#777f77;stop-opacity:1;"
         offset="0"
         id="stop11" />
      <stop
         style="stop-color:#777f77;stop-opacity:1;"
         offset="1"
         id="stop12" />
    </linearGradient>
    <linearGradient
       x1="0"
       y1="0"
       x2="1"
       y2="0"
       gradientUnits="userSpaceOnUse"
       gradientTransform="matrix(0,-4449.36,-4449.36,0,5105.43,3744.17)"
       spreadMethod="pad"
       id="linearGradient14">
      <stop
         style="stop-color:#aa9b88;stop-opacity:1;"
         offset="0"
         id="stop13" />
      <stop
         style="stop-color:#aa9b88;stop-opacity:1;"
         offset="1"
         id="stop14" />
    </linearGradient>
    <linearGradient
       x1="0"
       y1="0"
       x2="1"
       y2="0"
       gradientUnits="userSpaceOnUse"
       gradientTransform="matrix(0,-2246.12,-2246.12,0,8044.48,3756.31)"
       spreadMethod="pad"
       id="linearGradient16">
      <stop
         style="stop-color:#777f77;stop-opacity:1;"
         offset="0"
         id="stop15" />
      <stop
         style="stop-color:#777f77;stop-opacity:1;"
         offset="1"
         id="stop16" />
    </linearGradient>
    <linearGradient
       x1="0"
       y1="0"
       x2="1"
       y2="0"
       gradientUnits="userSpaceOnUse"
       gradientTransform="matrix(2619.15,0,0,-2619.15,6248.66,6559.29)"
       spreadMethod="pad"
       id="linearGradient38">
      <stop
         style="stop-color:#aa9b88;stop-opacity:1;"
         offset="0"
         id="stop37" />
      <stop
         style="stop-color:#aa9b88;stop-opacity:1;"
         offset="1"
         id="stop38" />
    </linearGradient>
    <linearGradient
       x1="0"
       y1="0"
       x2="1"
       y2="0"
       gradientUnits="userSpaceOnUse"
       gradientTransform="matrix(0,-6463.67,-6463.67,0,10495.3,7639.45)"
       spreadMethod="pad"
       id="linearGradient42">
      <stop
         style="stop-color:#777f77;stop-opacity:1;"
         offset="0"
         id="stop41" />
      <stop
         style="stop-color:#777f77;stop-opacity:1;"
         offset="1"
         id="stop42" />
    </linearGradient>
    <linearGradient
       x1="0"
       y1="0"
       x2="1"
       y2="0"
       gradientUnits="userSpaceOnUse"
       gradientTransform="matrix(-1399.47,0,0,1399.47,4566.21,7967.21)"
       spreadMethod="pad"
       id="linearGradient40">
      <stop
         style="stop-color:#d4d1cd;stop-opacity:1;"
         offset="0"
         id="stop39" />
      <stop
         style="stop-color:#d4d1cd;stop-opacity:1;"
         offset="1"
         id="stop40" />
    </linearGradient>
    <linearGradient
       x1="0"
       y1="0"
       x2="1"
       y2="0"
       gradientUnits="userSpaceOnUse"
       gradientTransform="matrix(0,-6243.99,-6243.99,0,10495.3,8186.82)"
       spreadMethod="pad"
       id="linearGradient52">
      <stop
         style="stop-color:#aa9b88;stop-opacity:1;"
         offset="0"
         id="stop51" />
      <stop
         style="stop-color:#aa9b88;stop-opacity:1;"
         offset="1"
         id="stop52" />
    </linearGradient>
    <linearGradient
       x1="0"
       y1="0"
       x2="1"
       y2="0"
       gradientUnits="userSpaceOnUse"
       gradientTransform="matrix(2922.08,0,0,-2922.08,1835.39,6071.29)"
       spreadMethod="pad"
       id="linearGradient108">
      <stop
         style="stop-color:#777f77;stop-opacity:1;"
         offset="0"
         id="stop107" />
      <stop
         style="stop-color:#777f77;stop-opacity:1;"
         offset="1"
         id="stop108" />
    </linearGradient>
    <linearGradient
       x1="0"
       y1="0"
       x2="1"
       y2="0"
       gradientUnits="userSpaceOnUse"
       gradientTransform="matrix(1456.18,-26.9663,-26.9663,-1456.18,2473.13,2774.28)"
       spreadMethod="pad"
       id="linearGradient116">
      <stop
         style="stop-color:#27211c;stop-opacity:1;"
         offset="0"
         id="stop115" />
      <stop
         style="stop-color:#27211c;stop-opacity:1;"
         offset="1"
         id="stop116" />
    </linearGradient>
    <linearGradient
       x1="0"
       y1="0"
       x2="1"
       y2="0"
       gradientUnits="userSpaceOnUse"
       gradientTransform="matrix(493.669,0,0,-493.669,2731.62,1482.32)"
       spreadMethod="pad"
       id="linearGradient118">
      <stop
         style="stop-color:#777f77;stop-opacity:1;"
         offset="0"
         id="stop117" />
      <stop
         style="stop-color:#777f77;stop-opacity:1;"
         offset="1"
         id="stop118" />
    </linearGradient>
    <linearGradient
       x1="0"
       y1="0"
       x2="1"
       y2="0"
       gradientUnits="userSpaceOnUse"
       gradientTransform="matrix(417.66,0,0,-417.66,2610.36,5145.9)"
       spreadMethod="pad"
       id="linearGradient128">
      <stop
         style="stop-opacity:1;stop-color:#f8d79e"
         offset="0"
         id="stop127" />
      <stop
         style="stop-opacity:1;stop-color:#f19c74"
         offset="1"
         id="stop128" />
    </linearGradient>
    <linearGradient
       x1="0"
       y1="0"
       x2="1"
       y2="0"
       gradientUnits="userSpaceOnUse"
       gradientTransform="matrix(1016.62,0,0,-1016.62,2726.28,4817.37)"
       spreadMethod="pad"
       id="linearGradient130">
      <stop
         style="stop-opacity:1;stop-color:#f8d79e"
         offset="0"
         id="stop129" />
      <stop
         style="stop-opacity:1;stop-color:#f19c74"
         offset="1"
         id="stop130" />
    </linearGradient>
    <linearGradient
       x1="0"
       y1="0"
       x2="1"
       y2="0"
       gradientUnits="userSpaceOnUse"
       gradientTransform="matrix(443.109,0,0,-443.109,2464.36,4853.56)"
       spreadMethod="pad"
       id="linearGradient132">
      <stop
         style="stop-color:#aa9b88;stop-opacity:1;"
         offset="0"
         id="stop131" />
      <stop
         style="stop-color:#aa9b88;stop-opacity:1;"
         offset="1"
         id="stop132" />
    </linearGradient>
    <linearGradient
       x1="0"
       y1="0"
       x2="1"
       y2="0"
       gradientUnits="userSpaceOnUse"
       gradientTransform="matrix(675.506,-800.899,-800.899,-675.506,1640.76,5229.3)"
       spreadMethod="pad"
       id="linearGradient122">
      <stop
         style="stop-color:#aa9b88;stop-opacity:1;"
         offset="0"
         id="stop121" />
      <stop
         style="stop-color:#aa9b88;stop-opacity:1;"
         offset="1"
         id="stop122" />
    </linearGradient>
    <clipPath
       clipPathUnits="userSpaceOnUse"
       id="clipPath9-2">
      <path
         d="M 12075.1,8113.92 V 1486.11 c 0,-55.29 -44.8,-100 -100,-100 H 3114.4 c -55.2,0 -100,44.71 -100,100 v 6627.81 c 0,55.3 44.8,100 100,100 h 8860.7 c 55.2,0 100,-44.7 100,-100 z"
         id="path9-0" />
    </clipPath>
    <clipPath
       clipPathUnits="userSpaceOnUse"
       id="clipPath12-7">
      <path
         d="M 8867.81,3822.15 H 3293.5 v 1496 h 5574.31 z"
         id="path12-1" />
    </clipPath>
    <clipPath
       clipPathUnits="userSpaceOnUse"
       id="clipPath14-9">
      <path
         d="M 6917.36,1653.05 H 3293.5 v 1864.02 h 3623.86 z"
         id="path14-2" />
    </clipPath>
    <clipPath
       clipPathUnits="userSpaceOnUse"
       id="clipPath16-0">
      <path
         d="M 8867.81,1653.05 H 7221.14 v 1864.02 h 1646.67 z"
         id="path16-2" />
    </clipPath>
    <clipPath
       clipPathUnits="userSpaceOnUse"
       id="clipPath22-4">
      <path
         d="m 5919.99,5644.71 h -215 v 30 h 185 v 185 h 30 z"
         id="path22-8" />
    </clipPath>
    <clipPath
       clipPathUnits="userSpaceOnUse"
       id="clipPath24-5">
      <path
         d="m 4373.49,5644.71 h -443.83 v 30 h 443.83 z m 887.66,0 h -443.83 v 30 h 443.83 z"
         id="path24-1" />
    </clipPath>
    <clipPath
       clipPathUnits="userSpaceOnUse"
       id="clipPath26-1">
      <path
         d="m 3485.83,5644.71 h -215 v 215 h 30 v -185 h 185 z"
         id="path26-1" />
    </clipPath>
    <linearGradient
       inkscape:collect="always"
       xlink:href="#linearGradient20"
       id="linearGradient5"
       gradientUnits="userSpaceOnUse"
       gradientTransform="matrix(2649.15,0,0,-2649.15,3270.83,6558.09)"
       x1="0"
       y1="0"
       x2="1"
       y2="0"
       spreadMethod="pad" />
    <clipPath
       clipPathUnits="userSpaceOnUse"
       id="clipPath28-7">
      <path
         d="m 3300.83,6325.3 h -30 v 465.58 h 30 z"
         id="path28-0" />
    </clipPath>
    <clipPath
       clipPathUnits="userSpaceOnUse"
       id="clipPath30-3">
      <path
         d="m 3300.83,7256.47 h -30 v 215 h 215 v -30 h -185 z"
         id="path30-7" />
    </clipPath>
    <clipPath
       clipPathUnits="userSpaceOnUse"
       id="clipPath32-3">
      <path
         d="m 4373.49,7441.47 h -443.83 v 30 h 443.83 z m 887.66,0 h -443.83 v 30 h 443.83 z"
         id="path32-1" />
    </clipPath>
    <clipPath
       clipPathUnits="userSpaceOnUse"
       id="clipPath34-5">
      <path
         d="m 5919.99,7256.47 h -30 v 185 h -185 v 30 h 215 z"
         id="path34-8" />
    </clipPath>
    <clipPath
       clipPathUnits="userSpaceOnUse"
       id="clipPath36-0">
      <path
         d="m 5919.99,6325.3 h -30 v 465.58 h 30 z"
         id="path36-9" />
    </clipPath>
    <clipPath
       clipPathUnits="userSpaceOnUse"
       id="clipPath38-3">
      <path
         d="M 8867.81,5660.92 H 6248.66 v 1796.75 h 2619.15 z"
         id="path38-3" />
    </clipPath>
    <clipPath
       clipPathUnits="userSpaceOnUse"
       id="clipPath42-5">
      <path
         d="M 11804.9,5660.92 H 9185.7 v 1796.75 h 2619.2 z"
         id="path42-5" />
    </clipPath>
    <linearGradient
       inkscape:collect="always"
       xlink:href="#linearGradient40"
       id="linearGradient8"
       gradientUnits="userSpaceOnUse"
       gradientTransform="matrix(-1399.47,0,0,1399.47,4566.21,7967.21)"
       x1="0"
       y1="0"
       x2="1"
       y2="0"
       spreadMethod="pad" />
    <clipPath
       clipPathUnits="userSpaceOnUse"
       id="clipPath44-3">
      <path
         d="m 3448.56,7967.21 c 0,-85.64 -69.42,-155.06 -155.06,-155.06 -85.63,0 -155.05,69.42 -155.05,155.06 0,85.63 69.42,155.06 155.05,155.06 85.64,0 155.06,-69.43 155.06,-155.06 z"
         id="path44-8" />
    </clipPath>
    <clipPath
       clipPathUnits="userSpaceOnUse"
       id="clipPath46-2">
      <path
         d="m 3894.35,7967.21 c 0,-85.64 -69.42,-155.06 -155.06,-155.06 -85.63,0 -155.05,69.42 -155.05,155.06 0,85.63 69.42,155.06 155.05,155.06 85.64,0 155.06,-69.43 155.06,-155.06 z"
         id="path46-2" />
    </clipPath>
    <clipPath
       clipPathUnits="userSpaceOnUse"
       id="clipPath48-6">
      <path
         d="m 4340.14,7967.21 c 0,-85.64 -69.42,-155.06 -155.06,-155.06 -85.63,0 -155.06,69.42 -155.06,155.06 0,85.63 69.43,155.06 155.06,155.06 85.64,0 155.06,-69.43 155.06,-155.06 z"
         id="path48-4" />
    </clipPath>
    <clipPath
       clipPathUnits="userSpaceOnUse"
       id="clipPath52-0">
      <path
         d="M 11804.9,1653.05 H 9185.7 v 3665.1 h 2619.2 z"
         id="path52-8" />
    </clipPath>
    <clipPath
       clipPathUnits="userSpaceOnUse"
       id="clipPath108-6">
      <path
         d="m 4387.72,4926.34 -2552.33,538.99 369.75,1750.91 2552.33,-538.99 z"
         id="path108-7" />
    </clipPath>
    <linearGradient
       x1="0"
       y1="0"
       x2="1"
       y2="0"
       gradientUnits="userSpaceOnUse"
       gradientTransform="matrix(-447.64,86.2921,86.2921,447.64,3042.82,2617.92)"
       spreadMethod="pad"
       id="linearGradient114">
      <stop
         style="stop-opacity:1;stop-color:#4369b2"
         offset="0"
         id="stop113" />
      <stop
         style="stop-color:#27211c;stop-opacity:1;"
         offset="1"
         id="stop114" />
    </linearGradient>
    <clipPath
       clipPathUnits="userSpaceOnUse"
       id="clipPath114">
      <path
         d="m 2175.58,3959.58 h -223.37 l 57.03,-2381.02 h 190.1 l 308.91,2381.02 z"
         id="path114" />
    </clipPath>
    <clipPath
       clipPathUnits="userSpaceOnUse"
       id="clipPath116-8">
      <path
         d="m 2175.58,3959.58 556.04,-2381.02 h 206.74 l -161.19,2381.02 z"
         id="path116-1" />
    </clipPath>
    <clipPath
       clipPathUnits="userSpaceOnUse"
       id="clipPath118-3">
      <path
         d="m 2731.62,1578.56 v -139.6 c 0,-29.2 23.67,-52.88 52.87,-52.88 h 407.05 c 18.64,0 33.75,15.11 33.75,33.75 v 0 c 0,13.12 -7.59,25.04 -19.48,30.59 l -274.58,128.14 z"
         id="path118-1" />
    </clipPath>
    <linearGradient
       x1="0"
       y1="0"
       x2="1"
       y2="0"
       gradientUnits="userSpaceOnUse"
       gradientTransform="matrix(427.727,0,0,-427.727,2009.24,1482.32)"
       spreadMethod="pad"
       id="linearGradient120">
      <stop
         style="stop-color:#777f77;stop-opacity:1;"
         offset="0"
         id="stop119" />
      <stop
         style="stop-color:#777f77;stop-opacity:1;"
         offset="1"
         id="stop120" />
    </linearGradient>
    <clipPath
       clipPathUnits="userSpaceOnUse"
       id="clipPath120">
      <path
         d="m 2009.24,1578.56 v -141.38 c 0,-28.22 22.87,-51.1 51.09,-51.1 h 347.63 c 16.02,0 29.01,12.99 29.01,29.01 v 0 c 0,10.04 -5.19,19.36 -13.73,24.65 l -223.9,138.82 z"
         id="path120" />
    </clipPath>
    <clipPath
       clipPathUnits="userSpaceOnUse"
       id="clipPath122-9">
      <path
         d="m 1952.21,3959.58 c 0,0 -109.65,952.69 278.87,1141.6 388.52,188.92 609.45,-464.36 546.09,-1141.6 -269.1,-54.46 -543.9,-56.13 -824.96,0 z"
         id="path122-1" />
    </clipPath>
    <linearGradient
       x1="0"
       y1="0"
       x2="1"
       y2="0"
       gradientUnits="userSpaceOnUse"
       gradientTransform="matrix(415.691,0,0,-415.691,2288.15,5362.69)"
       spreadMethod="pad"
       id="linearGradient124">
      <stop
         style="stop-opacity:1;stop-color:#f8d79e"
         offset="0"
         id="stop123" />
      <stop
         style="stop-opacity:1;stop-color:#f19c74"
         offset="1"
         id="stop124" />
    </linearGradient>
    <clipPath
       clipPathUnits="userSpaceOnUse"
       id="clipPath124">
      <path
         d="m 2305.68,5278.4 -17.53,-155.12 c 0,0 76.63,-108.6 196.78,-23.07 l 16.64,116.53 c 3.15,22.09 22.07,38.49 44.38,38.49 h 68.94 c 27.07,0 49.01,21.95 49.01,49.01 v 93.21 c 0,11.03 8.94,19.96 19.96,19.96 v 0 c 13.76,0 23.4,13.59 18.84,26.57 l -38.8,110.66 v 103.37 h -354.66 l -10.69,-219.21 z"
         id="path124" />
    </clipPath>
    <linearGradient
       x1="0"
       y1="0"
       x2="1"
       y2="0"
       gradientUnits="userSpaceOnUse"
       gradientTransform="matrix(635.878,0,0,-635.878,2102.12,5583.12)"
       spreadMethod="pad"
       id="linearGradient126">
      <stop
         style="stop-color:#753f28;stop-opacity:1;"
         offset="0"
         id="stop125" />
      <stop
         style="stop-color:#544516;stop-opacity:1;"
         offset="1"
         id="stop126" />
    </linearGradient>
    <clipPath
       clipPathUnits="userSpaceOnUse"
       id="clipPath126">
      <path
         d="m 2359.01,5282.17 c -65.99,5 -129.91,33.82 -177.36,79.95 -23.26,22.62 -42.66,49.29 -56.4,78.68 -37.6,80.45 -28.81,180.76 22.39,253.31 44.04,62.4 113.94,101.59 185.05,129.45 89,34.86 183.68,55.2 279.15,59.96 20.49,1.02 41.53,1.26 60.93,-5.42 39.45,-13.58 65.32,-55.72 65.23,-97.44 -0.09,-41.71 -23.32,-81.37 -56.21,-107.03 -32.89,-25.66 -74.46,-38.39 -116,-42.2 -34.05,-3.13 -72.87,-2.43 -96.15,-27.47 -20.26,-21.79 -23.66,-58.94 -50.43,-71.93 -22.31,-10.84 -52.4,0.48 -71.79,-15 -14.11,-11.27 -15.87,-33.04 -8.75,-49.64 7.12,-16.59 21.12,-29.11 35,-40.66 13.88,-11.55 28.43,-23.1 37.37,-38.79 13.47,-23.64 11.39,-55.23 -5.06,-76.91 -16.45,-21.67 -46.32,-32.17 -72.72,-25.56 z"
         id="path126" />
    </clipPath>
    <clipPath
       clipPathUnits="userSpaceOnUse"
       id="clipPath128-9">
      <path
         d="m 2739.81,5311.95 c -45.52,-50.85 -144.14,-175.12 -127.59,-281.27 99.8,-42.77 114.05,-57.03 114.05,-57.03 0,0 31.78,78.59 74.75,128.73 42.98,50.13 97.16,71.81 227,105.53 l -264.75,55.93 6.93,35.12 c 1.19,6.08 -1.02,12.6 -6.18,16.04 -7.25,4.84 -17.6,4.33 -24.21,-3.05 z"
         id="path128-0" />
    </clipPath>
    <clipPath
       clipPathUnits="userSpaceOnUse"
       id="clipPath130-3">
      <path
         d="m 2734.53,4668.78 223.39,-196.21 c 57.29,-50.31 166.04,-40.71 213.61,18.86 l 308.54,390.48 c 46.47,58.18 68.14,41.63 131.08,80.64 68.9,42.7 67.3,45.23 131.75,94.4 v 0 l -53.66,11.33 c -17.74,-4.23 -61.53,-49.84 -106.04,-36.94 l -13.68,3.04 c -57.26,12.72 -104.79,29.23 -80.75,126.69 v 0 c 3.81,17.24 -9.31,33.57 -26.96,33.57 v 0 c -9.64,0 -18.58,-5.03 -23.59,-13.26 l -33.55,-55.15 c -34.92,-57.43 -9.01,-109.13 -35.67,-170.81 -34.05,-78.78 -154.95,-212.95 -248.83,-310.15 -21.63,-22.38 -57.63,-22.19 -79.67,-0.21 l -209.07,208.5 -105.16,-141.9 z"
         id="path130-2" />
    </clipPath>
    <clipPath
       clipPathUnits="userSpaceOnUse"
       id="clipPath132-4">
      <path
         d="m 2703.84,4641.56 203.63,180.6 c 0,0 -119.93,216.44 -334.27,242.63 -33.66,4.12 -68.1,-8.39 -87.8,-36 -38.82,-54.34 -51.96,-171.78 218.44,-387.23 z"
         id="path132-8" />
    </clipPath>
    <linearGradient
       inkscape:collect="always"
       xlink:href="#linearGradient18"
       id="linearGradient17"
       gradientUnits="userSpaceOnUse"
       gradientTransform="matrix(2649.15,0,0,-2649.15,3270.83,7363.97)"
       x1="0"
       y1="0"
       x2="1"
       y2="0"
       spreadMethod="pad" />
  </defs>
  <g
     inkscape:label="Layer 1"
     inkscape:groupmode="layer"
     id="layer1"
     transform="translate(53.411545,-30.760317)">
    <path
       id="path8"
       d="M 12075.1,8113.92 V 1486.11 c 0,-55.29 -44.8,-100 -100,-100 H 3114.4 c -55.2,0 -100,44.71 -100,100 v 6627.81 c 0,55.3 44.8,100 100,100 h 8860.7 c 55.2,0 100,-44.7 100,-100"
       style="fill:url(#linearGradient9);fill-opacity:1;fill-rule:nonzero;stroke:none"
       transform="matrix(0.03527778,0,0,-0.03527778,-118.16003,320.52918)"
       clip-path="url(#clipPath9-2)" />
    <path
       id="path10"
       d="m -6.7295155,268.44401 c -0.97261,0 -1.76389,-0.79128 -1.76389,-1.76389 V 49.933788 H 304.49952 V 266.68012 c 0,0.97261 -0.79375,1.76389 -1.76388,1.76389 H -6.7295155"
       style="fill:#d4d1cd;fill-opacity:1;fill-rule:nonzero;stroke:none;stroke-width:0.0352778" />
    <path
       id="path11"
       d="M 8867.81,3822.15 H 3293.5 v 1496 h 5574.31 v -1496"
       style="fill:url(#linearGradient12);fill-opacity:1;fill-rule:nonzero;stroke:none"
       transform="matrix(0.03527778,0,0,-0.03527778,-118.16003,320.52918)"
       clip-path="url(#clipPath12-7)" />
    <path
       id="path13"
       d="M 6917.36,1653.05 H 3293.5 V 3517.07 H 6917.36 V 1653.05"
       style="fill:url(#linearGradient14);fill-opacity:1;fill-rule:nonzero;stroke:none"
       transform="matrix(0.03527778,0,0,-0.03527778,-118.16003,320.52918)"
       clip-path="url(#clipPath14-9)" />
    <path
       id="path15"
       d="M 8867.81,1653.05 H 7221.14 V 3517.07 H 8867.81 V 1653.05"
       style="fill:url(#linearGradient16);fill-opacity:1;fill-rule:nonzero;stroke:none"
       transform="matrix(0.03527778,0,0,-0.03527778,-118.16003,320.52918)"
       clip-path="url(#clipPath16-0)" />
    <path
       id="path19"
       d="m 143.64131,255.15769 v -7.3092 h 43.97975 v 7.3092 h -43.97975"
       style="fill:#d4d1cd;fill-opacity:1;fill-rule:nonzero;stroke:none;stroke-width:0.0352778" />
    <path
       id="path20"
       d="m 143.64131,243.08987 v -7.30921 h 43.97975 v 7.30921 h -43.97975"
       style="fill:#d4d1cd;fill-opacity:1;fill-rule:nonzero;stroke:none;stroke-width:0.0352778"
       sodipodi:nodetypes="ccccc" />
    <path
       id="path21"
       d="m 5919.99,5644.71 h -215 v 30 h 185 v 185 h 30 v -215"
       style="fill:#000000;fill-opacity:1;fill-rule:nonzero;stroke:none"
       transform="matrix(0.03527778,0,0,-0.03527778,-118.16003,320.52918)"
       clip-path="url(#clipPath22-4)" />
    <path
       id="path23"
       d="m 4373.49,5644.71 h -443.83 v 30 h 443.83 z m 887.66,0 h -443.83 v 30 h 443.83 v -30"
       style="fill:#000000;fill-opacity:1;fill-rule:nonzero;stroke:none"
       transform="matrix(0.03527778,0,0,-0.03527778,-118.16003,320.52918)"
       clip-path="url(#clipPath24-5)" />
    <path
       id="path25"
       d="m 3485.83,5644.71 h -215 v 215 h 30 v -185 h 185 v -30"
       style="fill:#000000;fill-opacity:1;fill-rule:nonzero;stroke:none"
       transform="matrix(0.03527778,0,0,-0.03527778,-118.16003,320.52918)"
       clip-path="url(#clipPath26-1)" />
    <path
       id="path27"
       d="m 3300.83,6325.3 h -30 v 465.58 h 30 V 6325.3"
       style="fill:#000000;fill-opacity:1;fill-rule:nonzero;stroke:none"
       transform="matrix(0.03527778,0,0,-0.03527778,-118.16003,320.52918)"
       clip-path="url(#clipPath28-7)" />
    <path
       id="path29"
       d="m 3300.83,7256.47 h -30 v 215 h 215 v -30 h -185 v -185"
       style="fill:#000000;fill-opacity:1;fill-rule:nonzero;stroke:none"
       transform="matrix(0.03527778,0,0,-0.03527778,-118.16003,320.52918)"
       clip-path="url(#clipPath30-3)" />
    <path
       id="path31"
       d="m 4373.49,7441.47 h -443.83 v 30 h 443.83 z m 887.66,0 h -443.83 v 30 h 443.83 v -30"
       style="fill:#000000;fill-opacity:1;fill-rule:nonzero;stroke:none"
       transform="matrix(0.03527778,0,0,-0.03527778,-118.16003,320.52918)"
       clip-path="url(#clipPath32-3)" />
    <path
       id="path33"
       d="m 5919.99,7256.47 h -30 v 185 h -185 v 30 h 215 v -215"
       style="fill:#000000;fill-opacity:1;fill-rule:nonzero;stroke:none"
       transform="matrix(0.03527778,0,0,-0.03527778,-118.16003,320.52918)"
       clip-path="url(#clipPath34-5)" />
    <path
       id="path35"
       d="m 5919.99,6325.3 h -30 v 465.58 h 30 V 6325.3"
       style="fill:#000000;fill-opacity:1;fill-rule:nonzero;stroke:none"
       transform="matrix(0.03527778,0,0,-0.03527778,-118.16003,320.52918)"
       clip-path="url(#clipPath36-0)" />
    <path
       id="path37"
       d="M 8867.81,5660.92 H 6248.66 V 7457.67 H 8867.81 V 5660.92"
       style="fill:url(#linearGradient38);fill-opacity:1;fill-rule:nonzero;stroke:none"
       transform="matrix(0.03527778,0,0,-0.03527778,-118.16003,320.52918)"
       clip-path="url(#clipPath38-3)" />
    <path
       id="path41"
       d="M 11804.9,5660.92 H 9185.7 v 1796.75 h 2619.2 V 5660.92"
       style="fill:url(#linearGradient42);fill-opacity:1;fill-rule:nonzero;stroke:none"
       transform="matrix(0.03527778,0,0,-0.03527778,-118.16003,320.52918)"
       clip-path="url(#clipPath42-5)" />
    <path
       id="path43"
       d="m 3448.56,7967.21 c 0,-85.64 -69.42,-155.06 -155.06,-155.06 -85.63,0 -155.05,69.42 -155.05,155.06 0,85.63 69.42,155.06 155.05,155.06 85.64,0 155.06,-69.43 155.06,-155.06"
       style="fill:url(#linearGradient8);fill-opacity:1;fill-rule:nonzero;stroke:none"
       transform="matrix(0.03527778,0,0,-0.03527778,-118.16003,320.52918)"
       clip-path="url(#clipPath44-3)" />
    <path
       id="path45"
       d="m 3894.35,7967.21 c 0,-85.64 -69.42,-155.06 -155.06,-155.06 -85.63,0 -155.05,69.42 -155.05,155.06 0,85.63 69.42,155.06 155.05,155.06 85.64,0 155.06,-69.43 155.06,-155.06"
       style="fill:url(#linearGradient17);fill-opacity:1;fill-rule:nonzero;stroke:none"
       transform="matrix(0.03527778,0,0,-0.03527778,-118.16003,320.52918)"
       clip-path="url(#clipPath46-2)" />
    <path
       id="path47"
       d="m 4340.14,7967.21 c 0,-85.64 -69.42,-155.06 -155.06,-155.06 -85.63,0 -155.06,69.42 -155.06,155.06 0,85.63 69.43,155.06 155.06,155.06 85.64,0 155.06,-69.43 155.06,-155.06"
       style="fill:url(#linearGradient5);fill-opacity:1;fill-rule:nonzero;stroke:none"
       transform="matrix(0.03527778,0,0,-0.03527778,-118.16003,320.52918)"
       clip-path="url(#clipPath48-6)" />
    <path
       id="path49"
       d="M 8.2889445,146.62913 H 79.622734 v -7.63588 H 8.2889445 v 7.63588"
       style="fill:#d4d1cd;fill-opacity:1;fill-rule:nonzero;stroke:none;stroke-width:0.0352778" />
    <path
       id="path50"
       d="M 8.2889445,155.76925 H 177.30196 V 151.9088 H 8.2889445 v 3.86045"
       style="fill:#d4d1cd;fill-opacity:1;fill-rule:nonzero;stroke:none;stroke-width:0.0352778" />
    <path
       id="path51"
       d="M 11804.9,1653.05 H 9185.7 v 3665.1 h 2619.2 v -3665.1"
       style="fill:url(#linearGradient52);fill-opacity:1;fill-rule:nonzero;stroke:none"
       transform="matrix(0.03527778,0,0,-0.03527778,-118.16003,320.52918)"
       clip-path="url(#clipPath52-0)" />
    <path
       id="path55"
       d="M 8.2889445,181.40914 H 44.879414 V 169.17516 H 8.2889445 v 12.23398"
       style="fill:#d4d1cd;fill-opacity:1;fill-rule:nonzero;stroke:none;stroke-width:0.0352778" />
    <path
       id="path56"
       d="M 8.2889445,163.89196 H 124.59943 v -3.8601 H 8.2889445 v 3.8601"
       style="fill:#d4d1cd;fill-opacity:1;fill-rule:nonzero;stroke:none;stroke-width:0.0352778"
       inkscape:label="path56" />
    <path
       id="path61"
       d="M 118.89148,209.36819 H 49.255614 v -7.25629 h 69.635866 v 7.25629"
       style="fill:#d4d1cd;fill-opacity:1;fill-rule:nonzero;stroke:none;stroke-width:0.0352778"
       inkscape:label="path61" />
    <path
       id="path62"
       d="M 118.89148,224.98566 H 49.255614 v -7.25664 h 69.635866 v 7.25664"
       style="fill:#d4d1cd;fill-opacity:1;fill-rule:nonzero;stroke:none;stroke-width:0.0352778" />
    <path
       id="path63"
       d="M 118.89148,240.60278 H 49.255614 v -7.25664 h 69.635866 v 7.25664"
       style="fill:#d4d1cd;fill-opacity:1;fill-rule:nonzero;stroke:none;stroke-width:0.0352778" />
    <path
       id="path64"
       d="M 118.89148,256.2199 H 4.3685245 v -7.25628 H 118.89148 v 7.25628"
       style="fill:#d4d1cd;fill-opacity:1;fill-rule:nonzero;stroke:none;stroke-width:0.0352778" />
    <path
       id="path107"
       d="M 4387.72,4926.34 1835.39,5465.33 2205.14,7216.24 4757.47,6677.25 4387.72,4926.34"
       style="fill:url(#linearGradient108);fill-opacity:1;fill-rule:nonzero;stroke:none"
       transform="matrix(0.03527778,0,0,-0.03527778,-118.16003,320.52918)"
       clip-path="url(#clipPath108-6)" />
    <path
       id="path113"
       d="M 2175.58,3959.58 2066.2306,3970.9821 2009.24,1578.56 h 190.1 L 2485.504,3859.5016 2175.58,3959.58"
       style="fill:url(#linearGradient114);fill-opacity:1;fill-rule:nonzero;stroke:none;stroke-width:0;stroke-dasharray:none"
       transform="matrix(0.03527778,0,0,-0.03527778,-118.16003,320.52918)"
       clip-path="url(#clipPath114)"
       sodipodi:nodetypes="cccccc" />
    <path
       id="path115"
       d="M 2238.0906,3934.3694 2731.62,1578.56 h 206.74 l -255.7289,2363.0126 -463.3912,11.6474"
       style="fill:url(#linearGradient116);fill-opacity:1;fill-rule:nonzero;stroke:none"
       transform="matrix(0.03527778,0,0,-0.03527778,-118.16003,320.52918)"
       clip-path="url(#clipPath116-8)"
       sodipodi:nodetypes="ccccc" />
    <path
       id="path117"
       d="m 2731.62,1578.56 v -139.6 c 0,-29.2 23.67,-52.88 52.87,-52.88 h 407.05 c 18.64,0 33.75,15.11 33.75,33.75 v 0 c 0,13.12 -7.59,25.04 -19.48,30.59 l -274.58,128.14 h -199.61"
       style="fill:url(#linearGradient118);fill-opacity:1;fill-rule:nonzero;stroke:none"
       transform="matrix(0.03527778,0,0,-0.03527778,-118.16003,320.52918)"
       clip-path="url(#clipPath118-3)" />
    <path
       id="path119"
       d="m 2009.24,1578.56 v -141.38 c 0,-28.22 22.87,-51.1 51.09,-51.1 h 347.63 c 16.02,0 29.01,12.99 29.01,29.01 v 0 c 0,10.04 -5.19,19.36 -13.73,24.65 l -223.9,138.82 h -190.1"
       style="fill:url(#linearGradient120);fill-opacity:1;fill-rule:nonzero;stroke:none"
       transform="matrix(0.03527778,0,0,-0.03527778,-118.16003,320.52918)"
       clip-path="url(#clipPath120)" />
    <path
       id="path121"
       d="m 1952.21,3959.58 c 0,0 -109.65,952.69 278.87,1141.6 388.52,188.92 495.5526,-536.3896 432.1926,-1213.6296 -269.1,-54.46 -430.0026,15.8996 -711.0626,72.0296"
       style="fill:url(#linearGradient122);fill-opacity:1;fill-rule:nonzero;stroke:none;stroke-width:1.07238"
       transform="matrix(0.03067618,0,0,-0.03527778,-105.33111,320.52918)"
       clip-path="url(#clipPath122-9)"
       sodipodi:nodetypes="cccc" />
    <path
       id="path123"
       d="m 2305.68,5278.4 -17.53,-155.12 c 0,0 76.63,-108.6 196.78,-23.07 l 16.64,116.53 c 3.15,22.09 22.07,38.49 44.38,38.49 h 68.94 c 27.07,0 49.01,21.95 49.01,49.01 v 93.21 c 0,11.03 8.94,19.96 19.96,19.96 v 0 c 13.76,0 23.4,13.59 18.84,26.57 l -38.8,110.66 v 103.37 h -354.66 l -10.69,-219.21 7.13,-160.4"
       style="fill:url(#linearGradient124);fill-opacity:1;fill-rule:nonzero;stroke:none"
       transform="matrix(0.03527778,0,0,-0.03527778,-118.16003,320.52918)"
       clip-path="url(#clipPath124)" />
    <path
       id="path125"
       d="m 2359.01,5282.17 c -65.99,5 -129.91,33.82 -177.36,79.95 -23.26,22.62 -42.66,49.29 -56.4,78.68 -37.6,80.45 -28.81,180.76 22.39,253.31 44.04,62.4 113.94,101.59 185.05,129.45 89,34.86 183.68,55.2 279.15,59.96 20.49,1.02 41.53,1.26 60.93,-5.42 39.45,-13.58 65.32,-55.72 65.23,-97.44 -0.09,-41.71 -23.32,-81.37 -56.21,-107.03 -32.89,-25.66 -74.46,-38.39 -116,-42.2 -34.05,-3.13 -72.87,-2.43 -96.15,-27.47 -20.26,-21.79 -23.66,-58.94 -50.43,-71.93 -22.31,-10.84 -52.4,0.48 -71.79,-15 -14.11,-11.27 -15.87,-33.04 -8.75,-49.64 7.12,-16.59 21.12,-29.11 35,-40.66 13.88,-11.55 28.43,-23.1 37.37,-38.79 13.47,-23.64 11.39,-55.23 -5.06,-76.91 -16.45,-21.67 -46.32,-32.17 -72.72,-25.56 l 25.75,-3.3"
       style="fill:url(#linearGradient126);fill-opacity:1;fill-rule:nonzero;stroke:none"
       transform="matrix(0.03527778,0,0,-0.03527778,-118.16003,320.52918)"
       clip-path="url(#clipPath126)" />
    <path
       id="path127"
       d="m 2739.81,5311.95 c -45.52,-50.85 -144.14,-175.12 -127.59,-281.27 99.8,-42.77 114.05,-57.03 114.05,-57.03 0,0 31.78,78.59 74.75,128.73 42.98,50.13 97.16,71.81 227,105.53 l -264.75,55.93 6.93,35.12 c 1.19,6.08 -1.02,12.6 -6.18,16.04 -7.25,4.84 -17.6,4.33 -24.21,-3.05"
       style="fill:url(#linearGradient128);fill-opacity:1;fill-rule:nonzero;stroke:none"
       transform="matrix(0.03527778,0,0,-0.03527778,-118.16003,320.52918)"
       clip-path="url(#clipPath128-9)" />
    <path
       id="path129"
       d="m 2734.53,4668.78 223.39,-196.21 c 57.29,-50.31 166.04,-40.71 213.61,18.86 l 308.54,390.48 c 46.47,58.18 68.14,41.63 131.08,80.64 68.9,42.7 67.3,45.23 131.75,94.4 v 0 l -53.66,11.33 c -17.74,-4.23 -61.53,-49.84 -106.04,-36.94 l -13.68,3.04 c -57.26,12.72 -104.79,29.23 -80.75,126.69 v 0 c 3.81,17.24 -9.31,33.57 -26.96,33.57 v 0 c -9.64,0 -18.58,-5.03 -23.59,-13.26 l -33.55,-55.15 c -34.92,-57.43 -9.01,-109.13 -35.67,-170.81 -34.05,-78.78 -154.95,-212.95 -248.83,-310.15 -21.63,-22.38 -57.63,-22.19 -79.67,-0.21 l -209.07,208.5 -105.16,-141.9 8.26,-42.88"
       style="fill:url(#linearGradient130);fill-opacity:1;fill-rule:nonzero;stroke:none"
       transform="matrix(0.03527778,0,0,-0.03527778,-118.16003,320.52918)"
       clip-path="url(#clipPath130-3)" />
    <path
       id="path131"
       d="m 2703.84,4641.56 203.63,180.6 c 0,0 -119.93,216.44 -334.27,242.63 -33.66,4.12 -68.1,-8.39 -87.8,-36 -38.82,-54.34 -51.96,-171.78 218.44,-387.23"
       style="fill:url(#linearGradient132);fill-opacity:1;fill-rule:nonzero;stroke:none"
       transform="matrix(0.03527778,0,0,-0.03527778,-118.16003,320.52918)"
       clip-path="url(#clipPath132-4)" />
    <path
       id="path20-6"
       d="m 143.55289,221.45065 0.0751,7.45934 44.35777,0.0871 v -7.57952"
       style="fill:#d4d1cd;fill-opacity:1;fill-rule:nonzero;stroke:none;stroke-width:0.0352777"
       sodipodi:nodetypes="cccc"
       inkscape:export-filename="bitmap.svg"
       inkscape:export-xdpi="96"
       inkscape:export-ydpi="96" />
  </g>
</svg>
