<?xml version="1.0" encoding="UTF-8" standalone="no"?>
<!-- Created with Inkscape (http://www.inkscape.org/) -->

<svg
   width="381.12097mm"
   height="240.86996mm"
   viewBox="0 0 381.12097 240.86996"
   version="1.1"
   id="svg1"
   inkscape:export-filename="bitmap.svg"
   inkscape:export-xdpi="96"
   inkscape:export-ydpi="96"
   sodipodi:docname="contenticon.svg"
   xml:space="preserve"
   inkscape:version="1.3 (0e150ed, 2023-07-21)"
   xmlns:inkscape="http://www.inkscape.org/namespaces/inkscape"
   xmlns:sodipodi="http://sodipodi.sourceforge.net/DTD/sodipodi-0.dtd"
   xmlns:xlink="http://www.w3.org/1999/xlink"
   xmlns="http://www.w3.org/2000/svg"
   xmlns:svg="http://www.w3.org/2000/svg"><sodipodi:namedview
     id="namedview1"
     pagecolor="#ffffff"
     bordercolor="#000000"
     borderopacity="0.25"
     inkscape:showpageshadow="2"
     inkscape:pageopacity="0.0"
     inkscape:pagecheckerboard="0"
     inkscape:deskcolor="#d1d1d1"
     inkscape:document-units="mm"
     inkscape:zoom="0.23570749"
     inkscape:cx="545.16722"
     inkscape:cy="528.19704"
     inkscape:window-width="1312"
     inkscape:window-height="658"
     inkscape:window-x="174"
     inkscape:window-y="0"
     inkscape:window-maximized="0"
     inkscape:current-layer="layer1"
     showguides="false"
     inkscape:export-bgcolor="#ffffff00" /><defs
     id="defs1"><linearGradient
       x1="0"
       y1="0"
       x2="1"
       y2="0"
       gradientUnits="userSpaceOnUse"
       gradientTransform="matrix(2649.15,0,0,-2649.15,3270.83,6558.09)"
       spreadMethod="pad"
       id="linearGradient20"><stop
         style="stop-color:#d4d1cd;stop-opacity:1;"
         offset="0"
         id="stop19" /><stop
         style="stop-color:#d4d1cd;stop-opacity:1;"
         offset="1"
         id="stop20" /></linearGradient><linearGradient
       x1="0"
       y1="0"
       x2="1"
       y2="0"
       gradientUnits="userSpaceOnUse"
       gradientTransform="matrix(2649.15,0,0,-2649.15,3270.83,7363.97)"
       spreadMethod="pad"
       id="linearGradient18"><stop
         style="stop-color:#d4d1cd;stop-opacity:1;"
         offset="0"
         id="stop17" /><stop
         style="stop-color:#d4d1cd;stop-opacity:1;"
         offset="1"
         id="stop18" /></linearGradient><linearGradient
       x1="0"
       y1="0"
       x2="1"
       y2="0"
       gradientUnits="userSpaceOnUse"
       gradientTransform="matrix(0,6827.8,6827.8,0,7544.76,1386.12)"
       spreadMethod="pad"
       id="linearGradient9"><stop
         style="stop-color:#27211c;stop-opacity:1;"
         offset="0"
         id="stop8" /><stop
         style="stop-color:#27211c;stop-opacity:1;"
         offset="1"
         id="stop9" /></linearGradient><linearGradient
       x1="0"
       y1="0"
       x2="1"
       y2="0"
       gradientUnits="userSpaceOnUse"
       gradientTransform="matrix(-1399.47,0,0,1399.47,4566.21,7967.21)"
       spreadMethod="pad"
       id="linearGradient40"><stop
         style="stop-color:#d4d1cd;stop-opacity:1;"
         offset="0"
         id="stop39" /><stop
         style="stop-color:#d4d1cd;stop-opacity:1;"
         offset="1"
         id="stop40" /></linearGradient><clipPath
       clipPathUnits="userSpaceOnUse"
       id="clipPath9-2"><path
         d="M 12075.1,8113.92 V 1486.11 c 0,-55.29 -44.8,-100 -100,-100 H 3114.4 c -55.2,0 -100,44.71 -100,100 v 6627.81 c 0,55.3 44.8,100 100,100 h 8860.7 c 55.2,0 100,-44.7 100,-100 z"
         id="path9-0" /></clipPath><linearGradient
       inkscape:collect="always"
       xlink:href="#linearGradient20"
       id="linearGradient5"
       gradientUnits="userSpaceOnUse"
       gradientTransform="matrix(2649.15,0,0,-2649.15,3270.83,6558.09)"
       x1="0"
       y1="0"
       x2="1"
       y2="0"
       spreadMethod="pad" /><linearGradient
       inkscape:collect="always"
       xlink:href="#linearGradient40"
       id="linearGradient8"
       gradientUnits="userSpaceOnUse"
       gradientTransform="matrix(-1399.47,0,0,1399.47,4566.21,7967.21)"
       x1="0"
       y1="0"
       x2="1"
       y2="0"
       spreadMethod="pad" /><clipPath
       clipPathUnits="userSpaceOnUse"
       id="clipPath44-3"><path
         d="m 3448.56,7967.21 c 0,-85.64 -69.42,-155.06 -155.06,-155.06 -85.63,0 -155.05,69.42 -155.05,155.06 0,85.63 69.42,155.06 155.05,155.06 85.64,0 155.06,-69.43 155.06,-155.06 z"
         id="path44-8" /></clipPath><clipPath
       clipPathUnits="userSpaceOnUse"
       id="clipPath46-2"><path
         d="m 3894.35,7967.21 c 0,-85.64 -69.42,-155.06 -155.06,-155.06 -85.63,0 -155.05,69.42 -155.05,155.06 0,85.63 69.42,155.06 155.05,155.06 85.64,0 155.06,-69.43 155.06,-155.06 z"
         id="path46-2" /></clipPath><clipPath
       clipPathUnits="userSpaceOnUse"
       id="clipPath48-6"><path
         d="m 4340.14,7967.21 c 0,-85.64 -69.42,-155.06 -155.06,-155.06 -85.63,0 -155.06,69.42 -155.06,155.06 0,85.63 69.43,155.06 155.06,155.06 85.64,0 155.06,-69.43 155.06,-155.06 z"
         id="path48-4" /></clipPath><linearGradient
       inkscape:collect="always"
       xlink:href="#linearGradient18"
       id="linearGradient17"
       gradientUnits="userSpaceOnUse"
       gradientTransform="matrix(2649.15,0,0,-2649.15,3270.83,7363.97)"
       x1="0"
       y1="0"
       x2="1"
       y2="0"
       spreadMethod="pad" /></defs><g
     inkscape:label="Layer 1"
     inkscape:groupmode="layer"
     id="layer1"
     transform="translate(19.03639,-31.662527)"><path
       id="path8"
       d="M 12075.1,8113.92 V 1486.11 c 0,-55.29 -44.8,-100 -100,-100 H 3114.4 c -55.2,0 -100,44.71 -100,100 v 6627.81 c 0,55.3 44.8,100 100,100 h 8860.7 c 55.2,0 100,-44.7 100,-100"
       style="fill:url(#linearGradient9);fill-opacity:1;fill-rule:nonzero;stroke:none"
       transform="matrix(0.03527778,0,0,-0.03527778,-125.37773,321.43139)"
       clip-path="url(#clipPath9-2)"
       inkscape:export-filename="contenticon.svg"
       inkscape:export-xdpi="96"
       inkscape:export-ydpi="96" /><path
       id="path10"
       d="m -13.947215,269.34622 c -0.97261,0 -1.76389,-0.79128 -1.76389,-1.76389 V 50.836 H 297.28182 v 216.74633 c 0,0.97261 -0.79375,1.76389 -1.76388,1.76389 H -13.947215"
       style="fill:#777f77;fill-opacity:1;fill-rule:nonzero;stroke:none;stroke-width:0.0352778" /><path
       id="path43"
       d="m 3448.56,7967.21 c 0,-85.64 -69.42,-155.06 -155.06,-155.06 -85.63,0 -155.05,69.42 -155.05,155.06 0,85.63 69.42,155.06 155.05,155.06 85.64,0 155.06,-69.43 155.06,-155.06"
       style="fill:url(#linearGradient8);fill-opacity:1;fill-rule:nonzero;stroke:none"
       transform="matrix(0.03527778,0,0,-0.03527778,-118.16003,320.52918)"
       clip-path="url(#clipPath44-3)" /><path
       id="path45"
       d="m 3894.35,7967.21 c 0,-85.64 -69.42,-155.06 -155.06,-155.06 -85.63,0 -155.05,69.42 -155.05,155.06 0,85.63 69.42,155.06 155.05,155.06 85.64,0 155.06,-69.43 155.06,-155.06"
       style="fill:url(#linearGradient17);fill-opacity:1;fill-rule:nonzero;stroke:none"
       transform="matrix(0.03527778,0,0,-0.03527778,-118.16003,320.52918)"
       clip-path="url(#clipPath46-2)" /><path
       id="path47"
       d="m 4340.14,7967.21 c 0,-85.64 -69.42,-155.06 -155.06,-155.06 -85.63,0 -155.06,69.42 -155.06,155.06 0,85.63 69.43,155.06 155.06,155.06 85.64,0 155.06,-69.43 155.06,-155.06"
       style="fill:url(#linearGradient5);fill-opacity:1;fill-rule:nonzero;stroke:none"
       transform="matrix(0.03527778,0,0,-0.03527778,-118.16003,320.52918)"
       clip-path="url(#clipPath48-6)" /><path
       d="m 361.89073,86.103291 -6.71057,6.384245 -13.8431,-12.688729 6.95845,-6.156825 z m -125.14007,86.188059 17.6224,16.16816 91.26517,-86.89033 -14.19108,-13.027895 z m -8.84613,9.71609 -2.85731,17.18976 18.73587,-2.61761 z m 59.49526,-6.82324 9.15483,-8.7185 v 96.48261 c 6e-5,3.52598 -3.11536,6.38438 -6.95847,6.38441 H -8.6151906 c -3.8431054,-3e-5 -6.9585154,-2.85843 -6.9584484,-6.38441 V 51.157226 H 296.55906 v 50.715244 l -9.15484,8.09608 V 98.217429 c -0.22408,-8.200504 -13.52334,-8.200504 -13.74744,0 v 23.909291 l -14.03,12.40551 c -0.48,-0.0969 -0.96978,-0.14752 -1.46127,-0.15082 h -74.91274 c -9.3976,-0.21618 -9.3976,12.82919 0,12.613 h 62.27432 l -28.46039,25.17402 c -1.08573,0.96133 -1.79763,2.22292 -2.02657,3.59123 l -0.43562,2.63346 h -54.88092 c -9.39943,-0.21792 -9.39943,12.83086 0,12.61296 h 52.77597 l -1.56156,9.39306 h -11.56407 c -9.39761,-0.21617 -9.39761,12.82918 0,12.61302 h 58.78632 c 7.68611,-0.006 9.56386,-9.8217 2.33986,-12.22996 l 13.18199,-12.54923 c 0.76566,8.03799 13.76322,7.48638 13.71687,-0.58212 z M 84.298332,200.40218 c -9.397601,-0.21618 -9.397601,12.82917 0,12.61301 h 87.890408 c 8.93805,-0.20559 8.93805,-12.40742 0,-12.61301 z m 13.047206,-10.37455 c 3.794022,-0.002 6.869092,-2.82353 6.871502,-6.30446 v -64.06234 c 7e-5,-3.48192 -3.07642,-6.30462 -6.871502,-6.30462 h -67.01915 c -3.796749,-0.002 -6.875859,2.82114 -6.875789,6.30462 v 64.07032 c 0.0017,3.48248 3.080084,6.30442 6.875789,6.30448 z m 23.271942,0.97424 h 11.93372 c 8.93624,-0.2072 8.93624,-12.40578 0,-12.61295 h -11.94687 c -9.39942,-0.21792 -9.39942,12.83086 0,12.61295 z m 0,-34.61874 c -9.40167,-0.22008 -9.40167,12.83295 0,12.61286 h 93.4484 c 9.40165,0.22009 9.40165,-12.83294 0,-12.61286 z m 0,-9.39293 h 35.46226 c 8.93806,-0.20559 8.93806,-12.40742 0,-12.613 h -35.47541 c -9.3976,-0.21617 -9.3976,12.82919 0,12.613 z m 144.42824,-28.31039 c 0.002,-3.48351 -3.07485,-6.30862 -6.87167,-6.30853 H 120.60433 c -9.3976,-0.21618 -9.3976,12.82917 0,12.61301 h 137.55674 c 3.79162,-3e-5 6.86668,-2.81776 6.87149,-6.29649 z M 132.32519,102.98634 h 90.46056 c 8.93797,-0.20567 8.93797,-12.407333 0,-12.613008 h -90.46056 c -8.93796,0.205675 -8.93796,12.407338 0,12.613008 z m 132.70737,-6.304458 c 0.002,-3.483448 -3.07473,-6.308534 -6.87149,-6.30855 h -8.1893 c -9.39769,-0.216249 -9.39769,12.829248 0,12.613008 h 8.1893 c 3.795,-3e-5 6.87148,-2.82262 6.87149,-6.304458 z M 73.886702,74.675949 c 1.8e-5,3.481858 3.07649,6.304453 6.87151,6.304463 H 258.16107 c 8.934,-0.209135 8.934,-12.403735 0,-12.61287 H 80.758212 c -3.796699,1e-5 -6.873855,2.825009 -6.87151,6.308407 z m -57.942578,0 c 1.7e-5,3.481858 3.076487,6.304453 6.871508,6.304463 h 30.756556 c 8.934002,-0.209135 8.934002,-12.403735 0,-12.61287 H 22.815632 c -3.796697,1e-5 -6.873855,2.825009 -6.871508,6.308407 z m 0,22.005933 c 1.7e-5,3.481838 3.076487,6.304438 6.871508,6.304458 h 82.323538 c 9.39771,0.21624 9.39771,-12.829257 0,-12.613008 H 22.815632 c -3.79675,0 -6.87394,2.825087 -6.871508,6.30855 z m 0,110.029448 c 1.7e-5,3.48185 3.076487,6.30444 6.871508,6.30445 h 34.274986 c 8.938059,-0.20559 8.938059,-12.4074 0,-12.61301 H 22.815632 c -3.79675,2e-5 -6.87394,2.8251 -6.871508,6.30856 z m 0,22.00576 c 1.7e-5,3.48186 3.076487,6.30447 6.871508,6.30448 h 76.695689 c 9.188379,0.0243 9.188379,-12.63319 0,-12.60894 H 22.815632 c -3.795021,1e-5 -6.871491,2.8226 -6.871508,6.30446 z m 208.515956,22.00594 c 3e-5,-3.48408 -3.07834,-6.3085 -6.87578,-6.30854 H 22.815632 c -8.93806,0.20559 -8.93806,12.40741 0,12.61301 H 217.5843 c 3.79668,0.002 6.87576,-2.82109 6.87578,-6.30447 z m 40.57248,0 c 0.002,-3.48345 -3.07473,-6.30853 -6.87149,-6.30854 h -13.39074 c -8.93808,0.20559 -8.93808,12.40741 0,12.61301 h 13.39074 c 3.795,-2e-5 6.87148,-2.82263 6.87149,-6.30447 z m 0,-22.00594 c -10e-6,-3.48185 -3.07649,-6.30445 -6.87149,-6.30446 H 126.6975 c -9.18837,-0.0243 -9.18837,12.63318 0,12.60894 h 131.46357 c 3.79503,-1e-5 6.87148,-2.82262 6.87149,-6.30448 z M 37.197879,177.42327 h 53.25874 v -51.45736 h -53.25874 z"
       id="path1"
       style="fill:#d4d1cd;fill-opacity:1;stroke:#27211c;stroke-width:0.264582;stroke-opacity:1"
       sodipodi:nodetypes="ccccccccccccccccccccccccccccccccccccccccccccccccccccccccccccccccccccccccccccccccccccccccccsccsccccccccsccsccccccccsccscsccccssccccscsccscsccccsccccc"
       inkscape:export-filename="contenticon.svg"
       inkscape:export-xdpi="96"
       inkscape:export-ydpi="96" /></g></svg>
