<?xml version="1.0" encoding="UTF-8"?>
<svg width="30px" height="34px" viewBox="0 0 30 34" version="1.1" xmlns="http://www.w3.org/2000/svg" xmlns:xlink="http://www.w3.org/1999/xlink">
    <title>favicon</title>
    <defs>
        <linearGradient x1="84.3308497%" y1="63.5354646%" x2="19.6828469%" y2="35.0188018%" id="linearGradient-1">
            <stop stop-color="#C78B4D" offset="0%"></stop>
            <stop stop-color="#F3C96D" offset="100%"></stop>
        </linearGradient>
    </defs>
    <g id="Page-1" stroke="none" stroke-width="1" fill="none" fill-rule="evenodd">
        <g id="Polygon" transform="translate(1.0622, 1)">
            <g id="path-2-link" transform="translate(-0, 0)" fill="#000000" fill-opacity="0.5" fill-rule="nonzero">
                <path d="M14.3564065,0.133974592 L27.212813,7.55662436 C27.522214,7.73525716 27.712813,8.06538416 27.712813,8.42264976 L27.712813,23.2679492 C27.712813,23.6252148 27.522214,23.9553418 27.212813,24.1339746 L14.3564065,31.5566244 C14.0470054,31.7352572 13.6658076,31.7352572 13.3564065,31.5566244 L0.5,24.1339746 C0.19059892,23.9553418 0,23.6252148 0,23.2679492 L0,8.42264976 C0,8.06538416 0.19059892,7.73525716 0.5,7.55662436 L13.3564065,0.133974592 C13.6658076,-0.0446581975 14.0470054,-0.0446581975 14.3564065,0.133974592 Z" id="path-2"></path>
            </g>
            <polygon id="Path" stroke="url(#linearGradient-1)" stroke-width="4" points="13.8564065 2.15470054 25.712813 8.99999996 25.712813 22.690599 13.8564065 29.5358984 1.99999996 22.690599 1.99999996 8.99999996"></polygon>
            <g id="path-2-link" transform="translate(-0, 0)" stroke="#C78B4D">
                <path d="M14.3564065,0.133974592 L27.212813,7.55662436 C27.522214,7.73525716 27.712813,8.06538416 27.712813,8.42264976 L27.712813,23.2679492 C27.712813,23.6252148 27.522214,23.9553418 27.212813,24.1339746 L14.3564065,31.5566244 C14.0470054,31.7352572 13.6658076,31.7352572 13.3564065,31.5566244 L0.5,24.1339746 C0.19059892,23.9553418 0,23.6252148 0,23.2679492 L0,8.42264976 C0,8.06538416 0.19059892,7.73525716 0.5,7.55662436 L13.3564065,0.133974592 C13.6658076,-0.0446581975 14.0470054,-0.0446581975 14.3564065,0.133974592 Z" id="path-2"></path>
            </g>
        </g>
    </g>
</svg>