<?xml version="1.0" encoding="UTF-8"?>
<svg width="1728px" height="1117px" viewBox="0 0 1728 1117" version="1.1" xmlns="http://www.w3.org/2000/svg" xmlns:xlink="http://www.w3.org/1999/xlink">
    <title>Group 3</title>
    <g id="Page-1" stroke="none" stroke-width="1" fill="none" fill-rule="evenodd">
        <g id="Group" transform="translate(-4, 0)">
            <rect id="Rectangle" stroke="#979797" fill="#9ECFDB" x="0.5" y="0.5" width="1727" height="2253"></rect>
            <circle id="Oval" fill="#FDD4AA" cx="464" cy="409" r="150"></circle>
            <path d="M491,840.122318 L539.468593,801.473699 L590.108269,801.473699 L627.836161,776.36527 L673.945464,748.785846 L699,708.310019 L779,644.129914 L841.202497,609.871764 L920.057524,582.711394 L974.871532,550.757362 L1018.40796,529.348235 L1075.27041,510.059525 L1138.08913,510.059525 L1186.87329,550.757362 L1244.74207,582.711394 L1298.25219,632.044295 L1330.2957,675.090922 L1373.321,708.310019 L1411.56557,748.785846 L1462,748.785846 L1496.85801,776.36527 L1543.26208,813.559525 L1605,840.122318 C1628.59246,884.394839 1640.3887,906.5311 1640.3887,906.5311 C1640.3887,906.5311 1647.4356,939.401241 1661.52941,1005.14152 C1689.50275,1048.45486 1703.48941,1070.11152 1703.48941,1070.11152 C1703.48941,1070.11152 1711.65961,1085.76086 1728,1117.05953 L491,1117.05953 L491,840.122318 Z" id="Path-2" fill="#BEBEBE" transform="translate(1109.5, 813.5595) scale(-1, 1) translate(-1109.5, -813.5595)"></path>
            <path d="M0.236852874,1066.18676 L37.5760531,1042.009 L63.6080736,1022.7515 L91.1626473,995.374232 L130.361456,970.124819 L181.740238,937.405627 L239.327749,903.840728 L285.732931,858.486851 L334.338672,821.303247 L406.234997,777.642783 L447.470549,732.762243 L482.425209,703.059525 L526.323686,732.762243 L599.392474,777.642783 L657.842764,821.303247 L707.272986,875.620464 L790.881182,937.405627 L827.965779,970.124819 L877.759815,995.374232 L922.021007,1026.13939 L979.598645,1044.0749 L1040.80325,1066.18676 L1084.01848,1116.71756 L1115.18389,1139.17774 C1150.0128,1171.72269 1167.42726,1187.99517 1167.42726,1187.99517 C1167.42726,1187.99517 1182.05455,1198.99414 1211.30912,1220.99208 C1243.68322,1253.91399 1259.87026,1270.37495 1259.87026,1270.37495 C1259.87026,1270.37495 1269.32579,1282.26981 1288.23685,1306.05953 L0.236852874,1297.0121 L0.236852874,1066.18676 Z" id="Path-2" fill="#C5C3C2"></path>
            <path d="M792.236853,1077.77185 L814.935108,1046.4278 L838.289231,1040.52191 L924.136829,967.329551 L1088.52993,809.369621 L1117.24519,791.828022 C1125.37203,778.395408 1133.83931,769.904422 1142.64702,766.355063 C1151.45474,762.805704 1167.82464,756.516012 1191.75671,747.485988 L1227.64808,830.317433 L1270.12438,867.760511 L1335.19497,890.831878 L1376.53321,942.636813 L1429.93988,1017.04325 L1462.10484,1043.42735 L1503.94698,1058.80879 L1579.82971,1121.10691 L1602.47786,1140.36869 C1627.78832,1168.27914 1640.44354,1182.23436 1640.44354,1182.23436 C1640.44354,1182.23436 1651.07331,1191.66704 1672.33285,1210.53241 C1695.85937,1238.76614 1707.62262,1252.883 1707.62262,1252.883 C1707.62262,1252.883 1714.49403,1263.084 1728.23685,1283.48599 L792.236853,1275.72694 L792.236853,1077.77185 Z" id="Path-2" fill="#D2D0D0" transform="translate(1260.2369, 1015.486) scale(-1, 1) translate(-1260.2369, -1015.486)"></path>
        </g>
    </g>
</svg>