<?xml version="1.0" encoding="UTF-8"?>
<svg width="1728px" height="1117px" viewBox="0 0 1728 1117" version="1.1" xmlns="http://www.w3.org/2000/svg" xmlns:xlink="http://www.w3.org/1999/xlink">
    <title>Group 2</title>
    <g id="Page-1" stroke="none" stroke-width="1" fill="none" fill-rule="evenodd">
        <g id="Group" transform="translate(-4, -471)">
            <rect id="Rectangle" stroke="#979797" fill="#9ECFDB" x="0.5" y="0.5" width="1727" height="2253"></rect>
            <circle id="Oval" fill="#FDD4AA" cx="464" cy="409" r="150"></circle>
            <path d="M491,840.122318 L539.468593,801.473699 L590.108269,801.473699 L627.836161,776.36527 L673.945464,748.785846 L699,708.310019 L779,644.129914 L841.202497,609.871764 L920.057524,582.711394 L974.871532,550.757362 L1018.40796,529.348235 L1075.27041,510.059525 L1138.08913,510.059525 L1186.87329,550.757362 L1244.74207,582.711394 L1298.25219,632.044295 L1330.2957,675.090922 L1373.321,708.310019 L1411.56557,748.785846 L1462,748.785846 L1496.85801,776.36527 L1543.26208,813.559525 L1605,840.122318 C1628.59246,884.394839 1640.3887,906.5311 1640.3887,906.5311 C1640.3887,906.5311 1647.4356,939.401241 1661.52941,1005.14152 C1689.50275,1048.45486 1703.48941,1070.11152 1703.48941,1070.11152 C1703.48941,1070.11152 1711.65961,1085.76086 1728,1117.05953 L491,1117.05953 L491,840.122318 Z" id="Path-2" fill="#BEBEBE" transform="translate(1109.5, 813.5595) scale(-1, 1) translate(-1109.5, -813.5595)"></path>
            <path d="M0.236852874,1066.18676 L37.5760531,1042.009 L63.6080736,1022.7515 L91.1626473,995.374232 L130.361456,970.124819 L181.740238,937.405627 L239.327749,903.840728 L285.732931,858.486851 L334.338672,821.303247 L406.234997,777.642783 L447.470549,732.762243 L482.425209,703.059525 L526.323686,732.762243 L599.392474,777.642783 L657.842764,821.303247 L707.272986,875.620464 L790.881182,937.405627 L827.965779,970.124819 L877.759815,995.374232 L922.021007,1026.13939 L979.598645,1044.0749 L1040.80325,1066.18676 L1084.01848,1116.71756 L1115.18389,1139.17774 C1150.0128,1171.72269 1167.42726,1187.99517 1167.42726,1187.99517 C1167.42726,1187.99517 1182.05455,1198.99414 1211.30912,1220.99208 C1243.68322,1253.91399 1259.87026,1270.37495 1259.87026,1270.37495 C1259.87026,1270.37495 1269.32579,1282.26981 1288.23685,1306.05953 L0.236852874,1297.0121 L0.236852874,1066.18676 Z" id="Path-2" fill="#C5C3C2"></path>
            <path d="M792.236853,1077.77185 L814.935108,1046.4278 L838.289231,1040.52191 L924.136829,967.329551 L1088.52993,809.369621 L1117.24519,791.828022 C1125.37203,778.395408 1133.83931,769.904422 1142.64702,766.355063 C1151.45474,762.805704 1167.82464,756.516012 1191.75671,747.485988 L1227.64808,830.317433 L1270.12438,867.760511 L1335.19497,890.831878 L1376.53321,942.636813 L1429.93988,1017.04325 L1462.10484,1043.42735 L1503.94698,1058.80879 L1579.82971,1121.10691 L1602.47786,1140.36869 C1627.78832,1168.27914 1640.44354,1182.23436 1640.44354,1182.23436 C1640.44354,1182.23436 1651.07331,1191.66704 1672.33285,1210.53241 C1695.85937,1238.76614 1707.62262,1252.883 1707.62262,1252.883 C1707.62262,1252.883 1714.49403,1263.084 1728.23685,1283.48599 L792.236853,1275.72694 L792.236853,1077.77185 Z" id="Path-2" fill="#D2D0D0" transform="translate(1260.2369, 1015.486) scale(-1, 1) translate(-1260.2369, -1015.486)"></path>
            <polygon id="Path-2" fill="#CFC4B8" points="956.390159 1370.31317 956.390159 1222.46019 1014.29282 1205.27147 1077.97324 1187.39134 1134.29923 1175.80998 1180.76622 1168.05049 1240.19719 1161.05953 1305.85347 1161.05953 1356.84125 1175.80998 1417.32401 1187.39134 1476.29256 1198.28188 1551.21558 1222.46019 1665.07938 1247.58307 1728.23685 1265.68635 1728 1354.04715"></polygon>
            <path d="M4.54747351e-13,1280.6869 L72.289496,1274.04727 L129.53066,1266.67916 L193.246119,1256.13539 L236.45707,1247.58307 L309.160256,1232.91308 L361.77471,1222.46019 L425.863382,1205.27147 L496.347063,1187.39134 L558.690617,1175.80998 L610.121896,1168.05049 L675.902145,1161.05953 L748.572788,1161.05953 L805.007825,1175.80998 L871.952225,1187.39134 L933.854388,1205.27147 L970.923323,1220.87321 L1020.69633,1232.91308 L1064.93883,1247.58307 L1122.49215,1256.13539 L1183.6709,1266.67916 L1226.86788,1290.77415 L1258.02012,1301.48401 C1292.83433,1317.00267 1310.24143,1324.76199 1310.24143,1324.76199 C1310.24143,1324.76199 1324.86254,1330.00672 1354.10476,1340.49616 C1386.46518,1356.19457 1402.64539,1364.04377 1402.64539,1364.04377 C1402.64539,1364.04377 1412.09693,1369.71569 1431,1381.05953 L4.54747351e-13,1381.05953 L4.54747351e-13,1280.6869 Z" id="Path-2" fill="#DFD3C6"></path>
            <path d="M0.236852874,1330.03864 L30.6517518,1330.03864 L88.059612,1330.03864 L254.191006,1330.03864 L488.379732,1319.51533 L724.301477,1308.21563 L947.980356,1308.21563 L1004.52105,1310.64288 L1060.69448,1310.56981 L1243.97507,1324.59223 L1351.51984,1324.59223 C1402.10824,1321.20763 1427.40243,1319.51533 1427.40243,1319.51533 C1427.40243,1319.51533 1507.95256,1321.20763 1669.05283,1324.59223 L1728,1330.03864 L1728,1380.72466 L0.236852874,1380.72466" id="Path-3" fill="#B1D7AF"></path>
            <path d="M4.54747351e-13,1483.95437 L3,1380.72466 L139.74888,1375.70867 L220.02568,1375.70867 L447.196291,1375.70867 L543.800432,1374.73261 L1006.20021,1374.73261 L1087.45586,1383.11364 L1153.45586,1414.64889 L1201.30397,1424.71861 L1288.58027,1414.64889 L1430.37107,1383.3832 C1555.93243,1378.26684 1636.40435,1375.70867 1671.78684,1375.70867 C1707.16933,1375.70867 1726.059,1378.17699 1728.45586,1383.11364 L1728.45586,1453.96166 L1728.69271,1555.11445 C1605.43533,1547.92699 1538.19953,1543.82812 1526.98529,1542.81785 C958.29627,1491.58525 722.063353,1623.15318 622.237717,1629.08819 C518.58702,1635.25061 388.511982,1619.7055 232.012603,1582.45286 L4.54747351e-13,1483.95437 Z" id="Path-3" fill="#7ABDCC" opacity="0.4" transform="translate(864.3464, 1502.5664) scale(-1, 1) translate(-864.3464, -1502.5664)"></path>
            <path d="M2.23685287,1476.8817 C26.0694277,1454.17949 46.7848501,1439.9221 64.3831201,1434.10953 C90.780525,1425.39068 186.216332,1393.72466 406.694355,1383.96044 C627.172379,1374.19622 710.022025,1386.29247 802.50573,1418.41416 C894.989435,1450.53585 1174.47923,1449.26539 1274.9116,1434.10953 C1341.86651,1424.00563 1493.56265,1410.544 1730,1393.72466 L1730,1451.93674 L1730,1492.91835 C1716.49566,1490.36787 1695.71526,1490.36787 1667.65879,1492.91835 C1614.02392,1497.79403 1470.55558,1476.29181 1262.49932,1483.15448 C1054.44307,1490.01715 1033.7217,1492.91835 925.394613,1513.46411 C894.17473,1519.3854 783.589237,1545.9381 674.627725,1543.40195 C565.666212,1540.86579 458.7584,1529.3549 294.358753,1511.51001 C108.516223,1491.33759 11.1422563,1508.86555 2.23685287,1564.09387 L2.23685287,1476.8817 Z" id="Path-3" fill="#6BB6C7" opacity="0.4"></path>
            <path d="M0.236852874,1544.03507 L51.1138418,1537.32467 L171.3533,1519.36822 C194.486031,1521.16747 225.957781,1515.75153 265.768552,1503.12041 C325.484707,1484.17373 292.787022,1491.09206 367.658746,1470.96983 C442.530469,1450.84759 543.387909,1445.87294 622.302128,1470.96983 C701.216348,1496.06671 631.966781,1467.23243 809.53756,1537.32467 C987.10834,1607.41691 1094.01039,1598.06254 1196.01035,1590.08343 C1298.01031,1582.10431 1603.71055,1492.65129 1647.98809,1479.44739 C1677.50645,1470.64478 1704.17709,1467.81893 1728,1470.96983 L1728.69271,1561.94665 L1728.69271,1587.08354 C1720.58707,1577.63426 1693.68553,1574.98881 1647.98809,1579.1472 C1579.44194,1585.38479 1556.34533,1586.16337 1505.72878,1592.89382 C1471.98442,1597.38079 1402.62422,1614.78451 1297.6482,1645.10496 C1195.86813,1670.53503 1127.98886,1686.23081 1094.01039,1692.19231 C1043.04268,1701.13455 1050.13585,1701.61392 957.873295,1701.61392 C900.932744,1701.61392 888.156229,1693.39191 777.478145,1674.96826 C666.800061,1656.54462 523.96268,1579.79154 359.731447,1561.94665 C174.079297,1541.77423 54.7323676,1551.15316 1.6906595,1590.08343 L0.236852874,1544.03507 Z" id="Path-3" fill="#5B9FAE" opacity="0.4"></path>
            <path d="M0.236852874,1541.10384 C60.8459319,1468.73399 135.0308,1439.6866 222.791458,1453.96166 C354.432444,1475.37425 556.795301,1564.50509 632.363766,1591.52801 C682.742743,1609.54328 754.326493,1632.1206 847.115016,1659.25996 C868.177022,1665.88577 897.964305,1669.19867 936.476863,1669.19867 C974.989421,1669.19867 1014.55934,1665.39097 1055.18663,1657.77556 L1211.44092,1625.62682 L1338.9591,1591.52801 C1422.88004,1570.25149 1474.02641,1557.60968 1492.39822,1553.60258 C1510.77002,1549.59547 1540.99281,1545.42923 1583.06659,1541.10384 L1690.7135,1533.9123 C1712.69209,1533.9123 1724.94283,1533.9123 1727.46574,1533.9123 C1731.2501,1533.9123 1728.11156,1665.7045 1727.46574,1669.19867 C1726.81992,1672.69284 1724.46574,1701.23664 1700.40904,1680.30045 C1699.98101,1679.92794 1661.48797,1655.85887 1594.86695,1636.71583 C1527.0391,1617.22601 1412.43636,1618.31222 1361.7679,1625.62682 C1311.09945,1632.94143 1100.48173,1680.30045 1047.63889,1694.86059 C994.796045,1709.42073 918.22667,1734.81916 825.895155,1748.8914 C786.389748,1754.91242 733.731048,1760.92829 622.841399,1742.37771 C619.700853,1741.85233 523.833844,1728.46942 521.252888,1727.86811 C404.176174,1700.59197 491.903546,1727.69349 356.901203,1680.30045 C265.932708,1648.36565 147.044592,1640.85735 0.236852874,1657.77556 L0.236852874,1541.10384 Z" id="Path-3" fill="#5CAABC" opacity="0.4"></path>
        </g>
    </g>
</svg>