<?xml version="1.0" encoding="UTF-8" standalone="no"?>
<!-- Created with Inkscape (http://www.inkscape.org/) -->

<svg
   width="319.64139mm"
   height="240.86998mm"
   viewBox="0 0 319.64138 240.86998"
   version="1.1"
   id="svg1"
   inkscape:export-filename="bitmap.svg"
   inkscape:export-xdpi="96"
   inkscape:export-ydpi="96"
   sodipodi:docname="hosticon.svg"
   xml:space="preserve"
   inkscape:version="1.3 (0e150ed, 2023-07-21)"
   xmlns:inkscape="http://www.inkscape.org/namespaces/inkscape"
   xmlns:sodipodi="http://sodipodi.sourceforge.net/DTD/sodipodi-0.dtd"
   xmlns:xlink="http://www.w3.org/1999/xlink"
   xmlns="http://www.w3.org/2000/svg"
   xmlns:svg="http://www.w3.org/2000/svg"><sodipodi:namedview
     id="namedview1"
     pagecolor="#ffffff"
     bordercolor="#000000"
     borderopacity="0.25"
     inkscape:showpageshadow="2"
     inkscape:pageopacity="0.0"
     inkscape:pagecheckerboard="0"
     inkscape:deskcolor="#d1d1d1"
     inkscape:document-units="mm"
     inkscape:zoom="0.21817764"
     inkscape:cx="579.80278"
     inkscape:cy="456.05041"
     inkscape:window-width="1312"
     inkscape:window-height="658"
     inkscape:window-x="49"
     inkscape:window-y="69"
     inkscape:window-maximized="0"
     inkscape:current-layer="layer1"
     showguides="false"
     inkscape:export-bgcolor="#ffffff00" /><defs
     id="defs1"><linearGradient
       x1="0"
       y1="0"
       x2="1"
       y2="0"
       gradientUnits="userSpaceOnUse"
       gradientTransform="matrix(2649.15,0,0,-2649.15,3270.83,6558.09)"
       spreadMethod="pad"
       id="linearGradient20"><stop
         style="stop-color:#d4d1cd;stop-opacity:1;"
         offset="0"
         id="stop19" /><stop
         style="stop-color:#d4d1cd;stop-opacity:1;"
         offset="1"
         id="stop20" /></linearGradient><linearGradient
       x1="0"
       y1="0"
       x2="1"
       y2="0"
       gradientUnits="userSpaceOnUse"
       gradientTransform="matrix(2649.15,0,0,-2649.15,3270.83,7363.97)"
       spreadMethod="pad"
       id="linearGradient18"><stop
         style="stop-color:#d4d1cd;stop-opacity:1;"
         offset="0"
         id="stop17" /><stop
         style="stop-color:#d4d1cd;stop-opacity:1;"
         offset="1"
         id="stop18" /></linearGradient><linearGradient
       x1="0"
       y1="0"
       x2="1"
       y2="0"
       gradientUnits="userSpaceOnUse"
       gradientTransform="matrix(0,6827.8,6827.8,0,7544.76,1386.12)"
       spreadMethod="pad"
       id="linearGradient9"><stop
         style="stop-color:#27211c;stop-opacity:1;"
         offset="0"
         id="stop8" /><stop
         style="stop-color:#27211c;stop-opacity:1;"
         offset="1"
         id="stop9" /></linearGradient><linearGradient
       x1="0"
       y1="0"
       x2="1"
       y2="0"
       gradientUnits="userSpaceOnUse"
       gradientTransform="matrix(0,-2650.09,-2650.09,0,6080.66,5564.4)"
       spreadMethod="pad"
       id="linearGradient12"><stop
         style="stop-color:#777f77;stop-opacity:1;"
         offset="0"
         id="stop11" /><stop
         style="stop-color:#777f77;stop-opacity:1;"
         offset="1"
         id="stop12" /></linearGradient><linearGradient
       x1="0"
       y1="0"
       x2="1"
       y2="0"
       gradientUnits="userSpaceOnUse"
       gradientTransform="matrix(0,-4449.36,-4449.36,0,5105.43,3744.17)"
       spreadMethod="pad"
       id="linearGradient14"><stop
         style="stop-color:#aa9b88;stop-opacity:1;"
         offset="0"
         id="stop13" /><stop
         style="stop-color:#aa9b88;stop-opacity:1;"
         offset="1"
         id="stop14" /></linearGradient><linearGradient
       x1="0"
       y1="0"
       x2="1"
       y2="0"
       gradientUnits="userSpaceOnUse"
       gradientTransform="matrix(0,-2246.12,-2246.12,0,8044.48,3756.31)"
       spreadMethod="pad"
       id="linearGradient16"><stop
         style="stop-color:#777f77;stop-opacity:1;"
         offset="0"
         id="stop15" /><stop
         style="stop-color:#777f77;stop-opacity:1;"
         offset="1"
         id="stop16" /></linearGradient><linearGradient
       x1="0"
       y1="0"
       x2="1"
       y2="0"
       gradientUnits="userSpaceOnUse"
       gradientTransform="matrix(2619.15,0,0,-2619.15,6248.66,6559.29)"
       spreadMethod="pad"
       id="linearGradient38"><stop
         style="stop-color:#aa9b88;stop-opacity:1;"
         offset="0"
         id="stop37" /><stop
         style="stop-color:#aa9b88;stop-opacity:1;"
         offset="1"
         id="stop38" /></linearGradient><linearGradient
       x1="0"
       y1="0"
       x2="1"
       y2="0"
       gradientUnits="userSpaceOnUse"
       gradientTransform="matrix(0,-6463.67,-6463.67,0,10495.3,7639.45)"
       spreadMethod="pad"
       id="linearGradient42"><stop
         style="stop-color:#777f77;stop-opacity:1;"
         offset="0"
         id="stop41" /><stop
         style="stop-color:#777f77;stop-opacity:1;"
         offset="1"
         id="stop42" /></linearGradient><linearGradient
       x1="0"
       y1="0"
       x2="1"
       y2="0"
       gradientUnits="userSpaceOnUse"
       gradientTransform="matrix(-1399.47,0,0,1399.47,4566.21,7967.21)"
       spreadMethod="pad"
       id="linearGradient40"><stop
         style="stop-color:#d4d1cd;stop-opacity:1;"
         offset="0"
         id="stop39" /><stop
         style="stop-color:#d4d1cd;stop-opacity:1;"
         offset="1"
         id="stop40" /></linearGradient><linearGradient
       x1="0"
       y1="0"
       x2="1"
       y2="0"
       gradientUnits="userSpaceOnUse"
       gradientTransform="matrix(0,-6243.99,-6243.99,0,10495.3,8186.82)"
       spreadMethod="pad"
       id="linearGradient52"><stop
         style="stop-color:#aa9b88;stop-opacity:1;"
         offset="0"
         id="stop51" /><stop
         style="stop-color:#aa9b88;stop-opacity:1;"
         offset="1"
         id="stop52" /></linearGradient><linearGradient
       x1="0"
       y1="0"
       x2="1"
       y2="0"
       gradientUnits="userSpaceOnUse"
       gradientTransform="matrix(2922.08,0,0,-2922.08,1835.39,6071.29)"
       spreadMethod="pad"
       id="linearGradient108"><stop
         style="stop-color:#777f77;stop-opacity:1;"
         offset="0"
         id="stop107" /><stop
         style="stop-color:#777f77;stop-opacity:1;"
         offset="1"
         id="stop108" /></linearGradient><linearGradient
       x1="0"
       y1="0"
       x2="1"
       y2="0"
       gradientUnits="userSpaceOnUse"
       gradientTransform="matrix(1456.18,-26.9663,-26.9663,-1456.18,2473.13,2774.28)"
       spreadMethod="pad"
       id="linearGradient116"><stop
         style="stop-color:#27211c;stop-opacity:1;"
         offset="0"
         id="stop115" /><stop
         style="stop-color:#27211c;stop-opacity:1;"
         offset="1"
         id="stop116" /></linearGradient><linearGradient
       x1="0"
       y1="0"
       x2="1"
       y2="0"
       gradientUnits="userSpaceOnUse"
       gradientTransform="matrix(493.669,0,0,-493.669,2731.62,1482.32)"
       spreadMethod="pad"
       id="linearGradient118"><stop
         style="stop-color:#777f77;stop-opacity:1;"
         offset="0"
         id="stop117" /><stop
         style="stop-color:#777f77;stop-opacity:1;"
         offset="1"
         id="stop118" /></linearGradient><linearGradient
       x1="0"
       y1="0"
       x2="1"
       y2="0"
       gradientUnits="userSpaceOnUse"
       gradientTransform="matrix(417.66,0,0,-417.66,2610.36,5145.9)"
       spreadMethod="pad"
       id="linearGradient128"><stop
         style="stop-opacity:1;stop-color:#f8d79e"
         offset="0"
         id="stop127" /><stop
         style="stop-opacity:1;stop-color:#f19c74"
         offset="1"
         id="stop128" /></linearGradient><linearGradient
       x1="0"
       y1="0"
       x2="1"
       y2="0"
       gradientUnits="userSpaceOnUse"
       gradientTransform="matrix(1016.62,0,0,-1016.62,2726.28,4817.37)"
       spreadMethod="pad"
       id="linearGradient130"><stop
         style="stop-opacity:1;stop-color:#f8d79e"
         offset="0"
         id="stop129" /><stop
         style="stop-opacity:1;stop-color:#f19c74"
         offset="1"
         id="stop130" /></linearGradient><linearGradient
       x1="0"
       y1="0"
       x2="1"
       y2="0"
       gradientUnits="userSpaceOnUse"
       gradientTransform="matrix(443.109,0,0,-443.109,2464.36,4853.56)"
       spreadMethod="pad"
       id="linearGradient132"><stop
         style="stop-color:#aa9b88;stop-opacity:1;"
         offset="0"
         id="stop131" /><stop
         style="stop-color:#aa9b88;stop-opacity:1;"
         offset="1"
         id="stop132" /></linearGradient><linearGradient
       x1="0"
       y1="0"
       x2="1"
       y2="0"
       gradientUnits="userSpaceOnUse"
       gradientTransform="matrix(675.506,-800.899,-800.899,-675.506,1640.76,5229.3)"
       spreadMethod="pad"
       id="linearGradient122"><stop
         style="stop-color:#aa9b88;stop-opacity:1;"
         offset="0"
         id="stop121" /><stop
         style="stop-color:#aa9b88;stop-opacity:1;"
         offset="1"
         id="stop122" /></linearGradient><clipPath
       clipPathUnits="userSpaceOnUse"
       id="clipPath9-2"><path
         d="M 12075.1,8113.92 V 1486.11 c 0,-55.29 -44.8,-100 -100,-100 H 3114.4 c -55.2,0 -100,44.71 -100,100 v 6627.81 c 0,55.3 44.8,100 100,100 h 8860.7 c 55.2,0 100,-44.7 100,-100 z"
         id="path9-0" /></clipPath><clipPath
       clipPathUnits="userSpaceOnUse"
       id="clipPath12-7"><path
         d="M 8867.81,3822.15 H 3293.5 v 1496 h 5574.31 z"
         id="path12-1" /></clipPath><clipPath
       clipPathUnits="userSpaceOnUse"
       id="clipPath14-9"><path
         d="M 6917.36,1653.05 H 3293.5 v 1864.02 h 3623.86 z"
         id="path14-2" /></clipPath><clipPath
       clipPathUnits="userSpaceOnUse"
       id="clipPath16-0"><path
         d="M 8867.81,1653.05 H 7221.14 v 1864.02 h 1646.67 z"
         id="path16-2" /></clipPath><clipPath
       clipPathUnits="userSpaceOnUse"
       id="clipPath22-4"><path
         d="m 5919.99,5644.71 h -215 v 30 h 185 v 185 h 30 z"
         id="path22-8" /></clipPath><clipPath
       clipPathUnits="userSpaceOnUse"
       id="clipPath24-5"><path
         d="m 4373.49,5644.71 h -443.83 v 30 h 443.83 z m 887.66,0 h -443.83 v 30 h 443.83 z"
         id="path24-1" /></clipPath><clipPath
       clipPathUnits="userSpaceOnUse"
       id="clipPath26-1"><path
         d="m 3485.83,5644.71 h -215 v 215 h 30 v -185 h 185 z"
         id="path26-1" /></clipPath><linearGradient
       inkscape:collect="always"
       xlink:href="#linearGradient20"
       id="linearGradient5"
       gradientUnits="userSpaceOnUse"
       gradientTransform="matrix(2649.15,0,0,-2649.15,3270.83,6558.09)"
       x1="0"
       y1="0"
       x2="1"
       y2="0"
       spreadMethod="pad" /><clipPath
       clipPathUnits="userSpaceOnUse"
       id="clipPath28-7"><path
         d="m 3300.83,6325.3 h -30 v 465.58 h 30 z"
         id="path28-0" /></clipPath><clipPath
       clipPathUnits="userSpaceOnUse"
       id="clipPath30-3"><path
         d="m 3300.83,7256.47 h -30 v 215 h 215 v -30 h -185 z"
         id="path30-7" /></clipPath><clipPath
       clipPathUnits="userSpaceOnUse"
       id="clipPath32-3"><path
         d="m 4373.49,7441.47 h -443.83 v 30 h 443.83 z m 887.66,0 h -443.83 v 30 h 443.83 z"
         id="path32-1" /></clipPath><clipPath
       clipPathUnits="userSpaceOnUse"
       id="clipPath34-5"><path
         d="m 5919.99,7256.47 h -30 v 185 h -185 v 30 h 215 z"
         id="path34-8" /></clipPath><clipPath
       clipPathUnits="userSpaceOnUse"
       id="clipPath36-0"><path
         d="m 5919.99,6325.3 h -30 v 465.58 h 30 z"
         id="path36-9" /></clipPath><clipPath
       clipPathUnits="userSpaceOnUse"
       id="clipPath38-3"><path
         d="M 8867.81,5660.92 H 6248.66 v 1796.75 h 2619.15 z"
         id="path38-3" /></clipPath><clipPath
       clipPathUnits="userSpaceOnUse"
       id="clipPath42-5"><path
         d="M 11804.9,5660.92 H 9185.7 v 1796.75 h 2619.2 z"
         id="path42-5" /></clipPath><linearGradient
       inkscape:collect="always"
       xlink:href="#linearGradient40"
       id="linearGradient8"
       gradientUnits="userSpaceOnUse"
       gradientTransform="matrix(-1399.47,0,0,1399.47,4566.21,7967.21)"
       x1="0"
       y1="0"
       x2="1"
       y2="0"
       spreadMethod="pad" /><clipPath
       clipPathUnits="userSpaceOnUse"
       id="clipPath44-3"><path
         d="m 3448.56,7967.21 c 0,-85.64 -69.42,-155.06 -155.06,-155.06 -85.63,0 -155.05,69.42 -155.05,155.06 0,85.63 69.42,155.06 155.05,155.06 85.64,0 155.06,-69.43 155.06,-155.06 z"
         id="path44-8" /></clipPath><clipPath
       clipPathUnits="userSpaceOnUse"
       id="clipPath46-2"><path
         d="m 3894.35,7967.21 c 0,-85.64 -69.42,-155.06 -155.06,-155.06 -85.63,0 -155.05,69.42 -155.05,155.06 0,85.63 69.42,155.06 155.05,155.06 85.64,0 155.06,-69.43 155.06,-155.06 z"
         id="path46-2" /></clipPath><clipPath
       clipPathUnits="userSpaceOnUse"
       id="clipPath48-6"><path
         d="m 4340.14,7967.21 c 0,-85.64 -69.42,-155.06 -155.06,-155.06 -85.63,0 -155.06,69.42 -155.06,155.06 0,85.63 69.43,155.06 155.06,155.06 85.64,0 155.06,-69.43 155.06,-155.06 z"
         id="path48-4" /></clipPath><clipPath
       clipPathUnits="userSpaceOnUse"
       id="clipPath52-0"><path
         d="M 11804.9,1653.05 H 9185.7 v 3665.1 h 2619.2 z"
         id="path52-8" /></clipPath><clipPath
       clipPathUnits="userSpaceOnUse"
       id="clipPath108-6"><path
         d="m 4387.72,4926.34 -2552.33,538.99 369.75,1750.91 2552.33,-538.99 z"
         id="path108-7" /></clipPath><linearGradient
       x1="0"
       y1="0"
       x2="1"
       y2="0"
       gradientUnits="userSpaceOnUse"
       gradientTransform="matrix(-447.64,86.2921,86.2921,447.64,3042.82,2617.92)"
       spreadMethod="pad"
       id="linearGradient114"><stop
         style="stop-opacity:1;stop-color:#4369b2"
         offset="0"
         id="stop113" /><stop
         style="stop-color:#27211c;stop-opacity:1;"
         offset="1"
         id="stop114" /></linearGradient><clipPath
       clipPathUnits="userSpaceOnUse"
       id="clipPath114"><path
         d="m 2175.58,3959.58 h -223.37 l 57.03,-2381.02 h 190.1 l 308.91,2381.02 z"
         id="path114" /></clipPath><clipPath
       clipPathUnits="userSpaceOnUse"
       id="clipPath116-8"><path
         d="m 2175.58,3959.58 556.04,-2381.02 h 206.74 l -161.19,2381.02 z"
         id="path116-1" /></clipPath><clipPath
       clipPathUnits="userSpaceOnUse"
       id="clipPath118-3"><path
         d="m 2731.62,1578.56 v -139.6 c 0,-29.2 23.67,-52.88 52.87,-52.88 h 407.05 c 18.64,0 33.75,15.11 33.75,33.75 v 0 c 0,13.12 -7.59,25.04 -19.48,30.59 l -274.58,128.14 z"
         id="path118-1" /></clipPath><linearGradient
       x1="0"
       y1="0"
       x2="1"
       y2="0"
       gradientUnits="userSpaceOnUse"
       gradientTransform="matrix(427.727,0,0,-427.727,2009.24,1482.32)"
       spreadMethod="pad"
       id="linearGradient120"><stop
         style="stop-color:#777f77;stop-opacity:1;"
         offset="0"
         id="stop119" /><stop
         style="stop-color:#777f77;stop-opacity:1;"
         offset="1"
         id="stop120" /></linearGradient><clipPath
       clipPathUnits="userSpaceOnUse"
       id="clipPath120"><path
         d="m 2009.24,1578.56 v -141.38 c 0,-28.22 22.87,-51.1 51.09,-51.1 h 347.63 c 16.02,0 29.01,12.99 29.01,29.01 v 0 c 0,10.04 -5.19,19.36 -13.73,24.65 l -223.9,138.82 z"
         id="path120" /></clipPath><clipPath
       clipPathUnits="userSpaceOnUse"
       id="clipPath122-9"><path
         d="m 1952.21,3959.58 c 0,0 -109.65,952.69 278.87,1141.6 388.52,188.92 609.45,-464.36 546.09,-1141.6 -269.1,-54.46 -543.9,-56.13 -824.96,0 z"
         id="path122-1" /></clipPath><linearGradient
       x1="0"
       y1="0"
       x2="1"
       y2="0"
       gradientUnits="userSpaceOnUse"
       gradientTransform="matrix(415.691,0,0,-415.691,2288.15,5362.69)"
       spreadMethod="pad"
       id="linearGradient124"><stop
         style="stop-opacity:1;stop-color:#f8d79e"
         offset="0"
         id="stop123" /><stop
         style="stop-opacity:1;stop-color:#f19c74"
         offset="1"
         id="stop124" /></linearGradient><clipPath
       clipPathUnits="userSpaceOnUse"
       id="clipPath124"><path
         d="m 2305.68,5278.4 -17.53,-155.12 c 0,0 76.63,-108.6 196.78,-23.07 l 16.64,116.53 c 3.15,22.09 22.07,38.49 44.38,38.49 h 68.94 c 27.07,0 49.01,21.95 49.01,49.01 v 93.21 c 0,11.03 8.94,19.96 19.96,19.96 v 0 c 13.76,0 23.4,13.59 18.84,26.57 l -38.8,110.66 v 103.37 h -354.66 l -10.69,-219.21 z"
         id="path124" /></clipPath><linearGradient
       x1="0"
       y1="0"
       x2="1"
       y2="0"
       gradientUnits="userSpaceOnUse"
       gradientTransform="matrix(635.878,0,0,-635.878,2102.12,5583.12)"
       spreadMethod="pad"
       id="linearGradient126"><stop
         style="stop-color:#753f28;stop-opacity:1;"
         offset="0"
         id="stop125" /><stop
         style="stop-color:#544516;stop-opacity:1;"
         offset="1"
         id="stop126" /></linearGradient><clipPath
       clipPathUnits="userSpaceOnUse"
       id="clipPath126"><path
         d="m 2359.01,5282.17 c -65.99,5 -129.91,33.82 -177.36,79.95 -23.26,22.62 -42.66,49.29 -56.4,78.68 -37.6,80.45 -28.81,180.76 22.39,253.31 44.04,62.4 113.94,101.59 185.05,129.45 89,34.86 183.68,55.2 279.15,59.96 20.49,1.02 41.53,1.26 60.93,-5.42 39.45,-13.58 65.32,-55.72 65.23,-97.44 -0.09,-41.71 -23.32,-81.37 -56.21,-107.03 -32.89,-25.66 -74.46,-38.39 -116,-42.2 -34.05,-3.13 -72.87,-2.43 -96.15,-27.47 -20.26,-21.79 -23.66,-58.94 -50.43,-71.93 -22.31,-10.84 -52.4,0.48 -71.79,-15 -14.11,-11.27 -15.87,-33.04 -8.75,-49.64 7.12,-16.59 21.12,-29.11 35,-40.66 13.88,-11.55 28.43,-23.1 37.37,-38.79 13.47,-23.64 11.39,-55.23 -5.06,-76.91 -16.45,-21.67 -46.32,-32.17 -72.72,-25.56 z"
         id="path126" /></clipPath><clipPath
       clipPathUnits="userSpaceOnUse"
       id="clipPath128-9"><path
         d="m 2739.81,5311.95 c -45.52,-50.85 -144.14,-175.12 -127.59,-281.27 99.8,-42.77 114.05,-57.03 114.05,-57.03 0,0 31.78,78.59 74.75,128.73 42.98,50.13 97.16,71.81 227,105.53 l -264.75,55.93 6.93,35.12 c 1.19,6.08 -1.02,12.6 -6.18,16.04 -7.25,4.84 -17.6,4.33 -24.21,-3.05 z"
         id="path128-0" /></clipPath><clipPath
       clipPathUnits="userSpaceOnUse"
       id="clipPath130-3"><path
         d="m 2734.53,4668.78 223.39,-196.21 c 57.29,-50.31 166.04,-40.71 213.61,18.86 l 308.54,390.48 c 46.47,58.18 68.14,41.63 131.08,80.64 68.9,42.7 67.3,45.23 131.75,94.4 v 0 l -53.66,11.33 c -17.74,-4.23 -61.53,-49.84 -106.04,-36.94 l -13.68,3.04 c -57.26,12.72 -104.79,29.23 -80.75,126.69 v 0 c 3.81,17.24 -9.31,33.57 -26.96,33.57 v 0 c -9.64,0 -18.58,-5.03 -23.59,-13.26 l -33.55,-55.15 c -34.92,-57.43 -9.01,-109.13 -35.67,-170.81 -34.05,-78.78 -154.95,-212.95 -248.83,-310.15 -21.63,-22.38 -57.63,-22.19 -79.67,-0.21 l -209.07,208.5 -105.16,-141.9 z"
         id="path130-2" /></clipPath><clipPath
       clipPathUnits="userSpaceOnUse"
       id="clipPath132-4"><path
         d="m 2703.84,4641.56 203.63,180.6 c 0,0 -119.93,216.44 -334.27,242.63 -33.66,4.12 -68.1,-8.39 -87.8,-36 -38.82,-54.34 -51.96,-171.78 218.44,-387.23 z"
         id="path132-8" /></clipPath><linearGradient
       inkscape:collect="always"
       xlink:href="#linearGradient18"
       id="linearGradient17"
       gradientUnits="userSpaceOnUse"
       gradientTransform="matrix(2649.15,0,0,-2649.15,3270.83,7363.97)"
       x1="0"
       y1="0"
       x2="1"
       y2="0"
       spreadMethod="pad" /></defs><g
     inkscape:label="Layer 1"
     inkscape:groupmode="layer"
     id="layer1"
     transform="translate(19.03639,-31.662527)"><path
       id="path8"
       d="M 12075.1,8113.92 V 1486.11 c 0,-55.29 -44.8,-100 -100,-100 H 3114.4 c -55.2,0 -100,44.71 -100,100 v 6627.81 c 0,55.3 44.8,100 100,100 h 8860.7 c 55.2,0 100,-44.7 100,-100"
       style="fill:url(#linearGradient9);fill-opacity:1;fill-rule:nonzero;stroke:none"
       transform="matrix(0.03527778,0,0,-0.03527778,-125.37773,321.43139)"
       clip-path="url(#clipPath9-2)"
       inkscape:export-filename="contenticon.svg"
       inkscape:export-xdpi="96"
       inkscape:export-ydpi="96" /><path
       id="path10"
       d="m -13.947215,269.34622 c -0.97261,0 -1.76389,-0.79128 -1.76389,-1.76389 V 50.836 H 297.28182 v 216.74633 c 0,0.97261 -0.79375,1.76389 -1.76388,1.76389 H -13.947215"
       style="fill:#d4d1cd;fill-opacity:1;fill-rule:nonzero;stroke:none;stroke-width:0.0352778" /><path
       id="path43"
       d="m 3448.56,7967.21 c 0,-85.64 -69.42,-155.06 -155.06,-155.06 -85.63,0 -155.05,69.42 -155.05,155.06 0,85.63 69.42,155.06 155.05,155.06 85.64,0 155.06,-69.43 155.06,-155.06"
       style="fill:url(#linearGradient8);fill-opacity:1;fill-rule:nonzero;stroke:none"
       transform="matrix(0.03527778,0,0,-0.03527778,-118.16003,320.52918)"
       clip-path="url(#clipPath44-3)" /><path
       id="path45"
       d="m 3894.35,7967.21 c 0,-85.64 -69.42,-155.06 -155.06,-155.06 -85.63,0 -155.05,69.42 -155.05,155.06 0,85.63 69.42,155.06 155.05,155.06 85.64,0 155.06,-69.43 155.06,-155.06"
       style="fill:url(#linearGradient17);fill-opacity:1;fill-rule:nonzero;stroke:none"
       transform="matrix(0.03527778,0,0,-0.03527778,-118.16003,320.52918)"
       clip-path="url(#clipPath46-2)" /><path
       id="path47"
       d="m 4340.14,7967.21 c 0,-85.64 -69.42,-155.06 -155.06,-155.06 -85.63,0 -155.06,69.42 -155.06,155.06 0,85.63 69.43,155.06 155.06,155.06 85.64,0 155.06,-69.43 155.06,-155.06"
       style="fill:url(#linearGradient5);fill-opacity:1;fill-rule:nonzero;stroke:none"
       transform="matrix(0.03527778,0,0,-0.03527778,-118.16003,320.52918)"
       clip-path="url(#clipPath48-6)" /><g
       style="opacity:1;fill:#777f77;fill-opacity:1;fill-rule:nonzero;stroke:none;stroke-width:0;stroke-linecap:butt;stroke-linejoin:miter;stroke-miterlimit:10;stroke-dasharray:none"
       transform="matrix(1.9831248,0,0,1.9831248,47.554541,69.148729)"
       id="g12"
       inkscape:export-filename="hosticon.svg"
       inkscape:export-xdpi="96"
       inkscape:export-ydpi="96">&#10;	<path
   d="m 65.293,45 c 0,-4.936 -0.46,-9.7 -1.294,-14.127 H 47 V 59.127 H 63.999 C 64.833,54.699 65.293,49.936 65.293,45 Z"
   style="opacity:1;fill:#777f77;fill-opacity:1;fill-rule:nonzero;stroke:none;stroke-width:0.374903;stroke-linecap:butt;stroke-linejoin:miter;stroke-miterlimit:10;stroke-dasharray:none"
   stroke-linecap="round"
   id="path1-0" />&#10;	<path
   d="M 47,4.21 V 26.873 H 63.119 C 60.033,14.61 53.974,5.663 47,4.21 Z"
   style="opacity:1;fill:#777f77;fill-opacity:1;fill-rule:nonzero;stroke:none;stroke-width:0.374903;stroke-linecap:butt;stroke-linejoin:miter;stroke-miterlimit:10;stroke-dasharray:none"
   stroke-linecap="round"
   id="path2" />&#10;	<path
   d="M 47,85.79 C 53.974,84.337 60.033,75.39 63.119,63.127 H 47 Z"
   style="opacity:1;fill:#777f77;fill-opacity:1;fill-rule:nonzero;stroke:none;stroke-width:0.374903;stroke-linecap:butt;stroke-linejoin:miter;stroke-miterlimit:10;stroke-dasharray:none"
   stroke-linecap="round"
   id="path3" />&#10;	<path
   d="M 87.725,59.127 C 89.194,54.683 90,49.937 90,45 90,40.063 89.194,35.317 87.725,30.873 H 68.11 c 0.766,4.427 1.183,9.169 1.183,14.127 0,4.958 -0.417,9.7 -1.183,14.127 z"
   style="opacity:1;fill:#777f77;fill-opacity:1;fill-rule:nonzero;stroke:none;stroke-width:0.374903;stroke-linecap:butt;stroke-linejoin:miter;stroke-miterlimit:10;stroke-dasharray:none"
   stroke-linecap="round"
   id="path4" />&#10;	<path
   d="M 22.696,26.873 C 26.393,10.915 34.879,0 45,0 26.599,0 10.787,11.05 3.813,26.873 Z"
   style="opacity:1;fill:#777f77;fill-opacity:1;fill-rule:nonzero;stroke:none;stroke-width:0.374903;stroke-linecap:butt;stroke-linejoin:miter;stroke-miterlimit:10;stroke-dasharray:none"
   stroke-linecap="round"
   id="path5" />&#10;	<path
   d="M 67.305,26.873 H 86.188 C 79.213,11.05 63.401,0 45,0 55.121,0 63.608,10.915 67.305,26.873 Z"
   style="opacity:1;fill:#777f77;fill-opacity:1;fill-rule:nonzero;stroke:none;stroke-width:0.374903;stroke-linecap:butt;stroke-linejoin:miter;stroke-miterlimit:10;stroke-dasharray:none"
   stroke-linecap="round"
   id="path6" />&#10;	<path
   d="M 43,4.21 C 36.026,5.663 29.968,14.61 26.882,26.873 H 43 Z"
   style="opacity:1;fill:#777f77;fill-opacity:1;fill-rule:nonzero;stroke:none;stroke-width:0.374903;stroke-linecap:butt;stroke-linejoin:miter;stroke-miterlimit:10;stroke-dasharray:none"
   stroke-linecap="round"
   id="path7" />&#10;	<path
   d="M 67.305,63.127 C 63.608,79.084 55.121,90 45,90 63.402,90 79.213,78.949 86.188,63.127 Z"
   style="opacity:1;fill:#777f77;fill-opacity:1;fill-rule:nonzero;stroke:none;stroke-width:0.374903;stroke-linecap:butt;stroke-linejoin:miter;stroke-miterlimit:10;stroke-dasharray:none"
   stroke-linecap="round"
   id="path8-9" />&#10;	<path
   d="M 22.696,63.127 H 3.813 C 10.787,78.949 26.598,90 45,90 34.879,90 26.392,79.084 22.696,63.127 Z"
   style="opacity:1;fill:#777f77;fill-opacity:1;fill-rule:nonzero;stroke:none;stroke-width:0.374903;stroke-linecap:butt;stroke-linejoin:miter;stroke-miterlimit:10;stroke-dasharray:none"
   stroke-linecap="round"
   id="path9" />&#10;	<path
   d="M 43,30.873 H 26.002 C 25.168,35.3 24.708,40.064 24.708,45 c 0,4.936 0.46,9.699 1.294,14.127 H 43 Z"
   style="opacity:1;fill:#777f77;fill-opacity:1;fill-rule:nonzero;stroke:none;stroke-width:0.374903;stroke-linecap:butt;stroke-linejoin:miter;stroke-miterlimit:10;stroke-dasharray:none"
   stroke-linecap="round"
   id="path10-7" />&#10;	<path
   d="M 43,85.79 V 63.127 H 26.882 C 29.968,75.39 36.026,84.337 43,85.79 Z"
   style="opacity:1;fill:#777f77;fill-opacity:1;fill-rule:nonzero;stroke:none;stroke-width:0.374903;stroke-linecap:butt;stroke-linejoin:miter;stroke-miterlimit:10;stroke-dasharray:none"
   stroke-linecap="round"
   id="path11" />&#10;	<path
   d="M 2.275,30.873 C 0.806,35.317 0,40.063 0,45 0,49.937 0.806,54.683 2.275,59.127 H 21.89 C 21.125,54.7 20.708,49.958 20.708,45 c 0,-4.958 0.417,-9.7 1.183,-14.127 H 2.275 Z"
   style="opacity:1;fill:#777f77;fill-opacity:1;fill-rule:nonzero;stroke:none;stroke-width:0.374903;stroke-linecap:butt;stroke-linejoin:miter;stroke-miterlimit:10;stroke-dasharray:none"
   stroke-linecap="round"
   id="path12" />&#10;</g></g></svg>
