<?xml version="1.0" encoding="UTF-8"?>
<svg width="1600px" height="1080px" viewBox="0 0 1600 1080" version="1.1" xmlns="http://www.w3.org/2000/svg" xmlns:xlink="http://www.w3.org/1999/xlink">
    <title>Group</title>
    <g id="Page-1" stroke="none" stroke-width="1" fill="none" fill-rule="evenodd">
        <g id="Group">
            <rect id="Rectangle" stroke="#979797" fill="#9ECFDB" x="0.5" y="0.5" width="1599" height="1079"></rect>
            <circle id="Oval" fill="#FDD4AA" cx="544.5" cy="165.5" r="71.5"></circle>
            <path d="M596,637.5 L755.283905,424.234807 L786.478272,424.234807 L809.718898,408.102538 L838.122527,390.382644 L853.556283,364.376759 L902.8368,323.140777 L941.153941,301.129774 L989.729147,283.679125 L1023.49493,263.148527 L1050.31365,249.393076 L1085.34129,237 L1124.03802,237 L1154.08939,263.148527 L1189.73693,283.679125 L1222.69951,315.375717 L1242.43852,343.033352 L1268.94238,364.376759 L1292.50128,390.382644 L1323.56922,390.382644 L1345.04197,408.102538 L1373.62719,432 L1411.65814,449.066704 C1426.19125,477.511981 1433.45781,491.73462 1433.45781,491.73462 C1433.45781,491.73462 1437.79875,512.853821 1446.48063,555.092223 C1463.71238,582.921218 1472.32826,596.835715 1472.32826,596.835715 C1472.32826,596.835715 1477.36115,606.890477 1487.42694,627 L725.426938,627 L596,637.5 Z" id="Path-2" fill="#BEBEBE" transform="translate(1041.7135, 437.25) scale(-1, 1) translate(-1041.7135, -437.25)"></path>
            <path d="M254,614.663836 L378.886868,492.448421 L391.357176,483.218873 L404.556844,470.097762 L423.334534,457.996468 L447.946886,442.31513 L475.53345,426.22847 L497.763261,404.491704 L521.047222,386.670706 L555.488242,365.745542 L575.241607,344.235631 L591.986192,330 L613.015199,344.235631 L648.017871,365.745542 L676.017738,386.670706 L699.696657,412.703336 L739.748099,442.31513 L757.513003,457.996468 L781.366202,470.097762 L802.568962,484.84259 L830.150796,493.438546 L859.470084,504.036104 L880.171789,528.254018 L895.10118,539.018514 C911.785528,554.616343 920.127702,562.415258 920.127702,562.415258 C920.127702,562.415258 927.134718,567.686738 941.14875,578.229698 C956.657148,594.008193 964.411347,601.897441 964.411347,601.897441 C964.411347,601.897441 968.940898,607.598294 978,619 L361,614.663836 L254,614.663836 Z" id="Path-2" fill="#C5C3C2"></path>
            <path d="M741,622.990194 L825.557856,510.888835 L836.093664,501.438338 L881.035248,463.613185 L967.095742,381.980907 L982.128301,372.915566 C986.382735,365.973712 990.815392,361.585646 995.42627,359.751369 C1000.03715,357.917092 1008.60686,354.666636 1021.1354,350 L1039.92469,392.806549 L1062.16121,412.156797 L1096.22594,424.079872 C1106.36941,432.813452 1113.58299,439.82998 1117.86669,445.129454 C1122.15039,450.428929 1135.76955,459.183598 1158.72419,471.393462 L1166.35927,492.444884 L1184.56834,510.888835 L1224.29328,543.083947 L1236.14968,553.03826 C1249.39981,567.462131 1256.02488,574.674066 1256.02488,574.674066 C1256.02488,574.674066 1261.5896,579.548792 1272.71906,589.298244 C1285.03529,603.889183 1291.19341,611.184652 1291.19341,611.184652 C1291.19341,611.184652 1294.79062,616.456435 1301.98505,627 L811.985047,622.990194 L741,622.990194 Z" id="Path-2" fill="#D2D0D0" transform="translate(1021.4925, 488.5) scale(-1, 1) translate(-1021.4925, -488.5)"></path>
            <polygon id="Path-2" fill="#CFC4B8" points="819 650 819 579.342697 846.75679 571.128398 877.283256 562.583682 904.284236 557.049077 926.559111 553.340905 955.048523 550 986.522162 550 1010.96416 557.049077 1039.95777 562.583682 1068.22551 567.788153 1104.14135 579.342697 1158.72421 591.348642 1206.73527 612.44379 1188.88646 642.226648"></polygon>
            <path d="M305.906521,627 L395.654503,603.925969 L423.095061,600.409371 L453.639299,595.377119 L474.353983,591.295327 L509.206803,584.293743 L534.429386,579.304863 L565.152537,571.101155 L598.941359,562.567457 L628.827927,557.039988 L653.483313,553.336597 L685.017381,550 L719.8546,550 L746.908713,557.039988 L779.000857,562.567457 L808.675828,571.101155 L826.446121,578.547441 L850.306555,584.293743 L871.515748,591.295327 L899.105948,595.377119 L928.43413,600.409371 L949.142114,611.909253 L964.076033,617.020775 C980.765442,624.427408 989.110147,628.130724 989.110147,628.130724 C989.110147,628.130724 996.119289,630.633887 1010.13757,635.640214 C1025.65067,643.132636 1033.40722,646.878846 1033.40722,646.878846 C1033.40722,646.878846 1037.93815,649.585898 1047,655 L361,655 L305.906521,627 Z" id="Path-2" fill="#DFD3C6"></path>
            <path d="M0,618.359147 L13.0215773,618.359147 L28.1658041,618.359147 L81.3285171,618.359147 L235.174969,618.359147 L452.046108,609.506153 L670.522114,600 L877.660579,600 L930.020249,602.041986 L982.039818,601.980511 L1151.76733,613.777213 L1251.35947,613.777213 C1298.207,610.92984 1321.63076,609.506153 1321.63076,609.506153 C1321.63076,609.506153 1396.22444,610.92984 1545.4118,613.777213 L1600,618.359147 L1600,661 L0,661" id="Path-3" fill="#B1D7AF"></path>
            <path d="M4.54747351e-13,711.11866 L2.77331931,661.8593 L129.189422,659.465759 L203.400489,659.465759 L413.406037,659.465759 L502.710746,659 L930.171491,659 L1005.28744,662.999278 L1066.30047,678.047334 L1110.53316,682.852422 L1191.21485,678.047334 L1322.2919,663.127908 C1438.36582,660.686475 1512.75726,659.465759 1545.46625,659.465759 C1578.17523,659.465759 1595.63759,660.643599 1597.85333,662.999278 L1597.85333,696.806678 L1598.07229,745.074973 C1484.12827,741.645247 1421.97282,739.68934 1411.60593,739.207253 C885.887183,714.759979 667.504079,777.541829 575.221292,780.373908 C479.402466,783.314506 359.155928,775.89666 214.481678,758.12037 L4.54747351e-13,711.11866 Z" id="Path-3" fill="#7ABDCC" opacity="0.4" transform="translate(799.0361, 720) scale(-1, 1) translate(-799.0361, -720)"></path>
            <path d="M1.92771084,708.15911 C23.9447536,697.267503 43.0821043,690.427381 59.3397627,687.638745 C83.7262504,683.455792 171.891892,668.263707 375.574209,663.579228 C579.256526,658.894748 655.794803,664.698045 741.233229,680.108738 C826.671656,695.519432 1084.87031,694.909917 1177.65188,687.638745 C1239.50627,682.791297 1379.6464,676.332951 1598.07229,668.263707 L1598.07229,696.191523 L1598.07229,715.852847 C1585.59669,714.629231 1566.39931,714.629231 1540.48014,715.852847 C1490.9311,718.192004 1358.39198,707.876104 1166.18516,711.168536 C973.978338,714.460969 954.835496,715.852847 854.76061,725.709877 C825.919013,728.550675 723.757769,741.289591 623.096791,740.072846 C522.435813,738.856101 423.672088,733.333636 271.796176,724.772379 C100.110868,715.094465 10.1547132,723.503672 1.92771084,750 L1.92771084,708.15911 Z" id="Path-3" fill="#6BB6C7" opacity="0.4"></path>
            <path d="M0,739.281397 L47.0391569,736.05697 L158.208526,727.42867 C179.596272,728.293231 208.693997,725.690806 245.501699,719.621395 C300.713253,710.517279 270.482071,713.841624 339.705954,704.172639 C408.929837,694.503653 502.179242,692.113272 575.140681,704.172639 C648.102121,716.232005 584.076295,702.376774 748.25228,736.05697 C912.428264,769.737165 1011.26631,765.242274 1105.57205,761.408209 C1199.8778,757.574143 1482.51798,714.590851 1523.45551,708.246211 C1550.74719,704.016451 1575.40597,702.658593 1597.43183,704.172639 L1598.07229,747.888138 L1598.07229,759.966724 C1590.57809,755.426228 1565.70583,754.155059 1523.45551,756.153218 C1460.08003,759.150456 1438.72569,759.524571 1391.92733,762.758639 C1360.72842,764.914685 1296.60031,773.277385 1199.543,787.846739 C1105.44056,800.066208 1042.68166,807.608228 1011.26631,810.472799 C964.143279,814.769657 970.701386,815 885.398523,815 C832.7532,815 820.940463,811.049222 718.61122,802.196432 C616.281977,793.343641 484.219327,756.462828 332.37664,747.888138 C160.728891,738.195039 50.3847244,742.701729 1.34414083,761.408209 L0,739.281397 Z" id="Path-3" fill="#5B9FAE" opacity="0.4"></path>
            <path d="M205.744126,849.795773 C290.475232,853.126797 502.20004,845.827083 575.114721,857.910675 C648.029403,869.994268 584.044609,856.111203 748.11538,889.859059 C912.186152,923.606916 1047.5528,910.899444 1143.48519,900.011487 C1239.41758,889.123531 1430.1893,842.955402 1482.49179,837.633825 C1534.79427,832.312248 1590.41005,840.519709 1596.67725,854.579651 C1600.85538,863.952947 1601.09323,883.698678 1597.39078,913.816846 C1569.98085,899.770278 1482.24112,901.846592 1334.17156,920.04579 C1112.06723,947.344587 867.163244,970.973838 764.899579,962.103263 C662.635915,953.232688 488.519663,897.449235 336.774284,888.857319 C79.4676624,874.288462 121.01302,846.464749 205.744126,849.795773 Z" id="Path-3" fill="#4C8C9A" opacity="0.4"></path>
            <path d="M0,738.485949 C56.0174196,703.776871 124.582145,689.845541 205.694178,696.691958 C327.362226,706.961583 514.394354,749.709349 584.237858,762.669723 C630.800194,771.309972 696.960859,782.138208 782.719852,795.154431 C802.18623,798.332214 829.716869,799.921106 865.31177,799.921106 C900.90667,799.921106 937.478831,798.094906 975.028253,794.442504 L1119.44494,779.02375 L1237.30251,762.669723 C1314.86572,752.46536 1362.13731,746.402262 1379.1173,744.480427 C1396.09728,742.558593 1424.03043,740.560433 1462.91676,738.485949 L1562.40849,735.036837 C1582.72201,735.036837 1594.04466,735.036837 1596.37643,735.036837 C1599.87409,735.036837 1596.97333,798.245279 1596.37643,799.921106 C1595.77953,801.596934 1593.60371,815.286735 1571.36951,805.245597 C1570.97391,805.06694 1535.39704,793.523245 1473.82314,784.342111 C1411.13383,774.994663 1305.21324,775.515614 1258.38335,779.02375 C1211.55347,782.531885 1016.89186,805.245597 968.052316,812.22874 C919.212772,819.211883 848.444186,831.393142 763.107579,838.142286 C726.595046,841.030007 677.925696,843.91526 575.436892,835.018276 C572.53427,834.766301 483.930012,828.347762 481.544586,828.059374 C373.337441,814.977547 454.418709,827.975621 329.643955,805.245597 C245.567107,789.929447 135.685789,786.328416 0,794.442504 L0,738.485949 Z" id="Path-3" fill="#5CAABC" opacity="0.4"></path>
            <path d="M0,870.341771 C63.7874782,861.029692 136.180972,859.514052 217.180481,865.794851 C338.679744,875.216049 513.899363,914.251348 583.645976,926.140997 C630.143718,934.06743 696.212601,944.001089 781.852624,955.941973 C801.291998,958.857224 828.784445,960.314849 864.329966,960.314849 C899.875487,960.314849 936.396913,958.63952 973.894245,955.288863 L1118.11058,941.143932 L1235.80466,926.140997 C1313.26027,916.779671 1360.46628,911.217476 1377.42271,909.454415 C1394.37914,907.691353 1422.27354,905.858272 1461.10592,903.955172 L1560.45963,900.791009 L1598.07229,900.791009 L1596.12286,967.694681 C1593.11534,972.172255 1584.21046,971.340513 1569.40822,965.199455 C1569.01317,965.035558 1533.48566,954.445549 1471.99717,946.022916 C1409.39484,937.44771 1303.62118,937.925623 1256.85626,941.143932 C1210.09134,944.362242 1015.69978,965.199455 966.927985,971.605684 C918.156194,978.011913 847.485782,989.186815 762.267558,995.378376 C725.805678,998.027528 677.203844,1000.67441 574.857219,992.512457 C571.958624,992.2813 483.477282,986.39303 481.095165,986.128467 C373.038131,974.127398 454.006919,986.051633 329.40526,965.199455 C245.445048,951.148653 135.716163,947.439042 0.218605547,954.070622 L0,870.341771 Z" id="Path-3" fill="#3B98AB" opacity="0.4"></path>
            <path d="M0,787.206085 C25.4975345,785.561256 75.0553059,784.738842 148.673314,784.738842 C222.291322,784.738842 285.618507,789.584605 338.654868,799.276131 C486.260089,821.524816 607.829358,831.287489 703.362677,828.564149 C775.398816,826.510636 863.928221,818.694328 971.133098,805.392633 C1186.70465,778.64509 1262.54721,773 1357.81798,773 C1421.33183,773 1500.13146,781.75871 1594.21687,799.276131 L1594.21687,823.16106 C1561.63061,823.107733 1524.2267,824.079111 1482.00512,826.075195 C1432.50061,828.41559 1296.8816,864.120822 1186.04355,878.669856 C1075.2055,893.21889 875.986422,890.447381 797.870362,882.306508 C706.559947,872.790583 438.000151,823.284403 265.31189,832.952717 C92.6236295,842.621032 250.058475,833.935787 242.743786,834.6137 C162.21746,842.076753 81.3028647,848.861741 0,854.968665 L0,787.206085 Z" id="Path-3" fill="#5B9FAE" opacity="0.4"></path>
            <path d="M0,855.204546 C89.1393203,826.173987 172.861396,810.869437 251.166227,809.290895 C315.14571,808.001137 327.433272,810.892778 413.822583,820.123068 C698.794639,850.570985 882.459059,892.329822 1094.92168,871.493161 C1307.3843,850.6565 1340.39561,829.795233 1464.44395,815.550978 C1509.48823,810.378622 1553.64825,813.040012 1596.92402,823.53515 C1598.92437,834.414618 1598.31118,848.006037 1595.08447,864.309407 C1595.05168,864.47509 1521.60622,840.347245 1400.58344,855.204546 C1279.56065,870.061847 1027.74263,951.805882 778.298315,921.197291 C528.854001,890.588701 533.16665,855.204546 305.403866,855.204546 C153.56201,855.204546 51.7607214,868.984391 0,896.544081 L0,855.204546 Z" id="Path-3" fill="#4C94A4" opacity="0.4"></path>
            <path d="M0,952.980131 C0,1037.66004 0,1080 0,1080 C0,1080 532.144969,1079.98344 1596.43491,1079.95032 C1597.5265,995.905116 1598.07229,953.882515 1598.07229,953.882515 C1598.07229,953.882515 1479.02544,922.917265 1263.24039,934.657205 C1047.45534,946.397146 991.095841,964.128598 823.329393,984.714991 C743.632395,994.494501 638.862693,995.713871 555.720951,988.631252 C397.341457,975.139332 358.162399,963.058965 237.931708,948.475298 C157.777914,938.752853 78.4673446,940.254464 0,952.980131 Z" id="Path" fill="#3490A3" opacity="0.4"></path>
        </g>
    </g>
</svg>